Bench12-Cond-Black.ufo
<glyph name="exclam" format="1">
  <advance width="464"/>
  <unicode hex="0021"/>
  <outline>
    <contour>
      <point x="204" y="530" type="curve" smooth="yes"/>
      <point x="262" y="530" type="line" smooth="yes"/>
      <point x="278" y="530"/>
      <point x="286" y="565"/>
      <point x="288" y="607" type="curve" smooth="yes"/>
      <point x="335" y="1459" type="line" smooth="yes"/>
      <point x="338" y="1502"/>
      <point x="325" y="1536"/>
      <point x="310" y="1536" type="curve" smooth="yes"/>
      <point x="156" y="1536" type="line" smooth="yes"/>
      <point x="141" y="1536"/>
      <point x="128" y="1502"/>
      <point x="130" y="1459" type="curve" smooth="yes"/>
      <point x="177" y="607" type="line" smooth="yes"/>
      <point x="179" y="565"/>
      <point x="189" y="530"/>
    </contour>
    <contour>
      <point x="233" y="0" type="curve" smooth="yes"/>
      <point x="312" y="0"/>
      <point x="350" y="97"/>
      <point x="350" y="193" type="curve" smooth="yes"/>
      <point x="350" y="289"/>
      <point x="311" y="385"/>
      <point x="233" y="385" type="curve" smooth="yes"/>
      <point x="156" y="385"/>
      <point x="115" y="291"/>
      <point x="115" y="193" type="curve" smooth="yes"/>
      <point x="115" y="96"/>
      <point x="155" y="0"/>
    </contour>
  </outline>
</glyph>
<glyph name="quotedbl" format="1">
  <advance width="616"/>
  <unicode hex="0022"/>
  <outline>
    <contour>
      <point x="181" y="674" type="curve" smooth="yes"/>
      <point x="212" y="674" type="line" smooth="yes"/>
      <point x="227" y="674"/>
      <point x="235" y="709"/>
      <point x="238" y="751" type="curve" smooth="yes"/>
      <point x="284" y="1459" type="line" smooth="yes"/>
      <point x="286" y="1502"/>
      <point x="275" y="1536"/>
      <point x="260" y="1536" type="curve" smooth="yes"/>
      <point x="133" y="1536" type="line" smooth="yes"/>
      <point x="118" y="1536"/>
      <point x="105" y="1502"/>
      <point x="108" y="1459" type="curve" smooth="yes"/>
      <point x="154" y="751" type="line" smooth="yes"/>
      <point x="156" y="709"/>
      <point x="166" y="674"/>
    </contour>
    <contour>
      <point x="404" y="674" type="curve" smooth="yes"/>
      <point x="435" y="674" type="line" smooth="yes"/>
      <point x="450" y="674"/>
      <point x="459" y="709"/>
      <point x="461" y="751" type="curve" smooth="yes"/>
      <point x="507" y="1459" type="line" smooth="yes"/>
      <point x="510" y="1502"/>
      <point x="497" y="1536"/>
      <point x="483" y="1536" type="curve" smooth="yes"/>
      <point x="356" y="1536" type="line" smooth="yes"/>
      <point x="341" y="1536"/>
      <point x="329" y="1502"/>
      <point x="331" y="1459" type="curve" smooth="yes"/>
      <point x="377" y="751" type="line" smooth="yes"/>
      <point x="380" y="709"/>
      <point x="389" y="674"/>
    </contour>
  </outline>
</glyph>
<glyph name="numbersign" format="1">
  <advance width="761"/>
  <unicode hex="0023"/>
  <outline>
    <contour>
      <point x="154" y="-205" type="curve" smooth="yes"/>
      <point x="232" y="-205" type="line" smooth="yes"/>
      <point x="239" y="-205"/>
      <point x="246" y="-191"/>
      <point x="247" y="-170" type="curve" smooth="yes"/>
      <point x="291" y="360" type="line"/>
      <point x="413" y="360" type="line"/>
      <point x="370" y="-170" type="line" smooth="yes"/>
      <point x="368" y="-187"/>
      <point x="373" y="-205"/>
      <point x="378" y="-205" type="curve" smooth="yes"/>
      <point x="455" y="-205" type="line" smooth="yes"/>
      <point x="463" y="-205"/>
      <point x="470" y="-191"/>
      <point x="471" y="-170" type="curve" smooth="yes"/>
      <point x="515" y="360" type="line"/>
      <point x="598" y="360" type="line" smooth="yes"/>
      <point x="613" y="360"/>
      <point x="622" y="374"/>
      <point x="622" y="417" type="curve" smooth="yes"/>
      <point x="622" y="522" type="line" smooth="yes"/>
      <point x="622" y="565"/>
      <point x="613" y="579"/>
      <point x="598" y="579" type="curve" smooth="yes"/>
      <point x="533" y="579" type="line"/>
      <point x="549" y="785" type="line"/>
      <point x="624" y="785" type="line" smooth="yes"/>
      <point x="638" y="785"/>
      <point x="647" y="799"/>
      <point x="647" y="842" type="curve" smooth="yes"/>
      <point x="647" y="949" type="line" smooth="yes"/>
      <point x="647" y="992"/>
      <point x="638" y="1006"/>
      <point x="624" y="1006" type="curve" smooth="yes"/>
      <point x="566" y="1006" type="line"/>
      <point x="615" y="1612" type="line" smooth="yes"/>
      <point x="617" y="1629"/>
      <point x="613" y="1647"/>
      <point x="606" y="1647" type="curve" smooth="yes"/>
      <point x="530" y="1647" type="line" smooth="yes"/>
      <point x="522" y="1647"/>
      <point x="515" y="1633"/>
      <point x="514" y="1612" type="curve" smooth="yes"/>
      <point x="464" y="1006" type="line"/>
      <point x="342" y="1006" type="line"/>
      <point x="391" y="1612" type="line" smooth="yes"/>
      <point x="392" y="1629"/>
      <point x="388" y="1647"/>
      <point x="382" y="1647" type="curve" smooth="yes"/>
      <point x="306" y="1647" type="line" smooth="yes"/>
      <point x="299" y="1647"/>
      <point x="291" y="1633"/>
      <point x="289" y="1612" type="curve" smooth="yes"/>
      <point x="240" y="1006" type="line"/>
      <point x="160" y="1006" type="line" smooth="yes"/>
      <point x="146" y="1006"/>
      <point x="137" y="992"/>
      <point x="137" y="949" type="curve" smooth="yes"/>
      <point x="137" y="842" type="line" smooth="yes"/>
      <point x="137" y="799"/>
      <point x="146" y="785"/>
      <point x="160" y="785" type="curve" smooth="yes"/>
      <point x="222" y="785" type="line"/>
      <point x="206" y="579" type="line"/>
      <point x="135" y="579" type="line" smooth="yes"/>
      <point x="120" y="579"/>
      <point x="111" y="565"/>
      <point x="111" y="522" type="curve" smooth="yes"/>
      <point x="111" y="417" type="line" smooth="yes"/>
      <point x="111" y="374"/>
      <point x="120" y="360"/>
      <point x="135" y="360" type="curve" smooth="yes"/>
      <point x="188" y="360" type="line"/>
      <point x="146" y="-170" type="line" smooth="yes"/>
      <point x="144" y="-187"/>
      <point x="148" y="-205"/>
    </contour>
    <contour>
      <point x="308" y="579" type="line"/>
      <point x="325" y="785" type="line"/>
      <point x="446" y="785" type="line"/>
      <point x="430" y="579" type="line"/>
    </contour>
  </outline>
</glyph>
<glyph name="percent" format="1">
  <advance width="1033"/>
  <unicode hex="0025"/>
  <outline>
    <contour>
      <point x="362" y="-82" type="curve" smooth="yes"/>
      <point x="419" y="-82" type="line" smooth="yes"/>
      <point x="434" y="-82"/>
      <point x="448" y="-54"/>
      <point x="455" y="-12" type="curve" smooth="yes"/>
      <point x="678" y="1466" type="line" smooth="yes"/>
      <point x="684" y="1499"/>
      <point x="676" y="1536"/>
      <point x="664" y="1536" type="curve" smooth="yes"/>
      <point x="607" y="1536" type="line" smooth="yes"/>
      <point x="591" y="1536"/>
      <point x="576" y="1508"/>
      <point x="570" y="1466" type="curve" smooth="yes"/>
      <point x="346" y="-12" type="line" smooth="yes"/>
      <point x="341" y="-45"/>
      <point x="349" y="-82"/>
    </contour>
    <contour>
      <point x="260" y="729" type="curve" smooth="yes"/>
      <point x="221" y="729"/>
      <point x="203" y="834"/>
      <point x="203" y="1018" type="curve" smooth="yes"/>
      <point x="203" y="1206"/>
      <point x="222" y="1317"/>
      <point x="260" y="1317" type="curve" smooth="yes"/>
      <point x="297" y="1317"/>
      <point x="317" y="1206"/>
      <point x="317" y="1018" type="curve" smooth="yes"/>
      <point x="317" y="834"/>
      <point x="298" y="729"/>
    </contour>
    <contour>
      <point x="260" y="549" type="curve" smooth="yes"/>
      <point x="361" y="549"/>
      <point x="413" y="788"/>
      <point x="413" y="1026" type="curve" smooth="yes"/>
      <point x="413" y="1262"/>
      <point x="363" y="1497"/>
      <point x="260" y="1497" type="curve" smooth="yes"/>
      <point x="156" y="1497"/>
      <point x="106" y="1262"/>
      <point x="106" y="1026" type="curve" smooth="yes"/>
      <point x="106" y="788"/>
      <point x="158" y="549"/>
    </contour>
    <contour>
      <point x="772" y="133" type="curve" smooth="yes"/>
      <point x="734" y="133"/>
      <point x="715" y="238"/>
      <point x="715" y="422" type="curve" smooth="yes"/>
      <point x="715" y="610"/>
      <point x="735" y="721"/>
      <point x="772" y="721" type="curve" smooth="yes"/>
      <point x="809" y="721"/>
      <point x="830" y="610"/>
      <point x="830" y="422" type="curve" smooth="yes"/>
      <point x="830" y="238"/>
      <point x="811" y="133"/>
    </contour>
    <contour>
      <point x="772" y="-47" type="curve" smooth="yes"/>
      <point x="874" y="-47"/>
      <point x="926" y="193"/>
      <point x="926" y="430" type="curve" smooth="yes"/>
      <point x="926" y="666"/>
      <point x="875" y="901"/>
      <point x="772" y="901" type="curve" smooth="yes"/>
      <point x="669" y="901"/>
      <point x="619" y="666"/>
      <point x="619" y="430" type="curve" smooth="yes"/>
      <point x="619" y="193"/>
      <point x="671" y="-47"/>
    </contour>
  </outline>
</glyph>
<glyph name="ampersand" format="1">
  <advance width="1264.05815575"/>
  <unicode hex="0026"/>
  <outline>
    <contour>
      <point x="1062" y="-21" type="curve" smooth="yes"/>
      <point x="1114" y="-21"/>
      <point x="1162" y="-5"/>
      <point x="1202" y="18" type="curve" smooth="yes"/>
      <point x="1219" y="28"/>
      <point x="1231" y="66"/>
      <point x="1230" y="108" type="curve" smooth="yes"/>
      <point x="1230" y="192" type="line" smooth="yes"/>
      <point x="1229" y="232"/>
      <point x="1217" y="258"/>
      <point x="1200" y="247" type="curve" smooth="yes"/>
      <point x="1172" y="229"/>
      <point x="1137" y="214"/>
      <point x="1104" y="214" type="curve" smooth="yes"/>
      <point x="1050" y="214"/>
      <point x="1005" y="255"/>
      <point x="1005" y="393" type="curve" smooth="yes"/>
      <point x="1005" y="608" type="line" smooth="yes"/>
      <point x="1005" y="628"/>
      <point x="1011" y="637"/>
      <point x="1019" y="637" type="curve" smooth="yes"/>
      <point x="1168" y="637" type="line" smooth="yes"/>
      <point x="1186" y="637"/>
      <point x="1199" y="670"/>
      <point x="1199" y="713" type="curve" smooth="yes"/>
      <point x="1199" y="777" type="line" smooth="yes"/>
      <point x="1199" y="820"/>
      <point x="1186" y="852"/>
      <point x="1168" y="852" type="curve" smooth="yes"/>
      <point x="1019" y="852" type="line" smooth="yes"/>
      <point x="1011" y="852"/>
      <point x="1005" y="862"/>
      <point x="1005" y="882" type="curve" smooth="yes"/>
      <point x="1005" y="1354" type="line" smooth="yes"/>
      <point x="1005" y="1397"/>
      <point x="991" y="1408"/>
      <point x="974" y="1408" type="curve" smooth="yes"/>
      <point x="785" y="1408" type="line" smooth="yes"/>
      <point x="767" y="1408"/>
      <point x="755" y="1397"/>
      <point x="754" y="1354" type="curve"/>
      <point x="743" y="882" type="line"/>
      <point x="743" y="862"/>
      <point x="736" y="852"/>
      <point x="728" y="852" type="curve" smooth="yes"/>
      <point x="489" y="852" type="line" smooth="yes"/>
      <point x="397" y="852"/>
      <point x="360" y="974"/>
      <point x="360" y="1059" type="curve" smooth="yes"/>
      <point x="361" y="1185"/>
      <point x="450" y="1225"/>
      <point x="509" y="1225" type="curve" smooth="yes"/>
      <point x="594" y="1225"/>
      <point x="601" y="1207"/>
      <point x="611" y="1204" type="curve" smooth="yes"/>
      <point x="615" y="1202"/>
      <point x="618" y="1201"/>
      <point x="621" y="1201" type="curve" smooth="yes"/>
      <point x="631" y="1201"/>
      <point x="637" y="1214"/>
      <point x="638" y="1245" type="curve" smooth="yes"/>
      <point x="647" y="1355" type="line" smooth="yes"/>
      <point x="648" y="1360"/>
      <point x="648" y="1364"/>
      <point x="648" y="1368" type="curve" smooth="yes"/>
      <point x="648" y="1398"/>
      <point x="641" y="1415"/>
      <point x="626" y="1425" type="curve"/>
      <point x="598" y="1442"/>
      <point x="575" y="1455"/>
      <point x="492" y="1459" type="curve" smooth="yes"/>
      <point x="248" y="1471"/>
      <point x="98" y="1327"/>
      <point x="98" y="1036" type="curve" smooth="yes"/>
      <point x="98" y="858"/>
      <point x="206" y="758"/>
      <point x="287" y="737" type="curve"/>
      <point x="204" y="712"/>
      <point x="104" y="594"/>
      <point x="100" y="416" type="curve" smooth="yes"/>
      <point x="92" y="88"/>
      <point x="274" y="-27"/>
      <point x="507" y="-20" type="curve" smooth="yes"/>
      <point x="684" y="-15"/>
      <point x="737" y="79"/>
      <point x="787" y="121" type="curve"/>
      <point x="842" y="18"/>
      <point x="983" y="-21"/>
    </contour>
    <contour>
      <point x="532" y="194" type="curve" smooth="yes"/>
      <point x="451" y="194"/>
      <point x="362" y="255"/>
      <point x="362" y="407" type="curve" smooth="yes"/>
      <point x="362" y="501"/>
      <point x="407" y="636"/>
      <point x="499" y="637" type="curve" smooth="yes"/>
      <point x="573" y="637"/>
      <point x="655" y="638"/>
      <point x="728" y="637" type="curve" smooth="yes"/>
      <point x="736" y="637"/>
      <point x="743" y="629"/>
      <point x="743" y="609" type="curve" smooth="yes"/>
      <point x="743" y="475" type="line" smooth="yes"/>
      <point x="743" y="434"/>
      <point x="745" y="343"/>
      <point x="747" y="307" type="curve"/>
      <point x="731" y="284"/>
      <point x="687" y="194"/>
    </contour>
  </outline>
</glyph>
<glyph name="parenleft" format="1">
  <advance width="483"/>
  <unicode hex="0028"/>
  <outline>
    <contour>
      <point x="346" y="-143" type="curve" smooth="yes"/>
      <point x="359" y="-146"/>
      <point x="372" y="-111"/>
      <point x="372" y="-73" type="curve" smooth="yes"/>
      <point x="372" y="27" type="line" smooth="yes"/>
      <point x="372" y="96"/>
      <point x="368" y="117"/>
      <point x="347" y="147" type="curve" smooth="yes"/>
      <point x="301" y="213"/>
      <point x="279" y="456"/>
      <point x="279" y="698" type="curve" smooth="yes"/>
      <point x="279" y="941"/>
      <point x="302" y="1185"/>
      <point x="347" y="1251" type="curve" smooth="yes"/>
      <point x="368" y="1282"/>
      <point x="372" y="1303"/>
      <point x="372" y="1372" type="curve" smooth="yes"/>
      <point x="372" y="1470" type="line" smooth="yes"/>
      <point x="372" y="1508"/>
      <point x="359" y="1543"/>
      <point x="346" y="1540" type="curve" smooth="yes"/>
      <point x="189" y="1499"/>
      <point x="111" y="1098"/>
      <point x="111" y="698" type="curve" smooth="yes"/>
      <point x="111" y="297"/>
      <point x="189" y="-103"/>
    </contour>
  </outline>
</glyph>
<glyph name="plus" format="1">
  <advance width="801"/>
  <unicode hex="002B"/>
  <outline>
    <contour>
      <point x="339" y="250" type="curve" smooth="yes"/>
      <point x="461" y="250" type="line" smooth="yes"/>
      <point x="479" y="250"/>
      <point x="492" y="254"/>
      <point x="492" y="295" type="curve" smooth="yes"/>
      <point x="492" y="509" type="line" smooth="yes"/>
      <point x="492" y="529"/>
      <point x="499" y="531"/>
      <point x="509" y="531" type="curve" smooth="yes"/>
      <point x="668" y="531" type="line" smooth="yes"/>
      <point x="684" y="531"/>
      <point x="699" y="535"/>
      <point x="699" y="576" type="curve" smooth="yes"/>
      <point x="699" y="623" type="line" smooth="yes"/>
      <point x="699" y="665"/>
      <point x="684" y="668"/>
      <point x="668" y="668" type="curve" smooth="yes"/>
      <point x="509" y="668" type="line" smooth="yes"/>
      <point x="499" y="668"/>
      <point x="492" y="670"/>
      <point x="492" y="690" type="curve" smooth="yes"/>
      <point x="492" y="891" type="line" smooth="yes"/>
      <point x="492" y="932"/>
      <point x="479" y="936"/>
      <point x="461" y="936" type="curve" smooth="yes"/>
      <point x="339" y="936" type="line" smooth="yes"/>
      <point x="320" y="936"/>
      <point x="306" y="932"/>
      <point x="306" y="891" type="curve" smooth="yes"/>
      <point x="306" y="690" type="line" smooth="yes"/>
      <point x="306" y="670"/>
      <point x="300" y="668"/>
      <point x="291" y="668" type="curve" smooth="yes"/>
      <point x="129" y="668" type="line" smooth="yes"/>
      <point x="112" y="668"/>
      <point x="98" y="665"/>
      <point x="98" y="623" type="curve" smooth="yes"/>
      <point x="98" y="576" type="line" smooth="yes"/>
      <point x="98" y="535"/>
      <point x="112" y="531"/>
      <point x="129" y="531" type="curve" smooth="yes"/>
      <point x="291" y="531" type="line" smooth="yes"/>
      <point x="300" y="531"/>
      <point x="306" y="529"/>
      <point x="306" y="509" type="curve" smooth="yes"/>
      <point x="306" y="295" type="line" smooth="yes"/>
      <point x="306" y="254"/>
      <point x="320" y="250"/>
    </contour>
  </outline>
</glyph>
<glyph name="comma" format="1">
  <advance width="459"/>
  <unicode hex="002C"/>
  <outline>
    <contour>
      <point x="202" y="-283" type="curve" smooth="yes"/>
      <point x="250" y="-260"/>
      <point x="354" y="-212"/>
      <point x="354" y="25" type="curve" smooth="yes"/>
      <point x="354" y="229" type="line" smooth="yes"/>
      <point x="354" y="272"/>
      <point x="342" y="280"/>
      <point x="328" y="280" type="curve" smooth="yes"/>
      <point x="124" y="280" type="line" smooth="yes"/>
      <point x="110" y="280"/>
      <point x="103" y="272"/>
      <point x="103" y="229" type="curve" smooth="yes"/>
      <point x="103" y="45" type="line" smooth="yes"/>
      <point x="103" y="7"/>
      <point x="111" y="0"/>
      <point x="124" y="0" type="curve" smooth="yes"/>
      <point x="228" y="0" type="line" smooth="yes"/>
      <point x="233" y="0"/>
      <point x="234" y="-11"/>
      <point x="234" y="-27" type="curve" smooth="yes"/>
      <point x="234" y="-51"/>
      <point x="236" y="-118"/>
      <point x="213" y="-161" type="curve" smooth="yes"/>
      <point x="198" y="-188"/>
      <point x="176" y="-177"/>
      <point x="176" y="-231" type="curve" smooth="yes"/>
      <point x="176" y="-258" type="line" smooth="yes"/>
      <point x="176" y="-294"/>
      <point x="190" y="-289"/>
    </contour>
  </outline>
</glyph>
<glyph name="hyphen" format="1">
  <advance width="616"/>
  <unicode hex="002D"/>
  <outline>
    <contour>
      <point x="127" y="526" type="curve" smooth="yes"/>
      <point x="486" y="526" type="line" smooth="yes"/>
      <point x="501" y="526"/>
      <point x="512" y="530"/>
      <point x="512" y="573" type="curve" smooth="yes"/>
      <point x="512" y="671" type="line" smooth="yes"/>
      <point x="512" y="714"/>
      <point x="501" y="718"/>
      <point x="486" y="718" type="curve" smooth="yes"/>
      <point x="127" y="718" type="line" smooth="yes"/>
      <point x="112" y="718"/>
      <point x="100" y="714"/>
      <point x="100" y="671" type="curve" smooth="yes"/>
      <point x="100" y="573" type="line" smooth="yes"/>
      <point x="100" y="530"/>
      <point x="112" y="526"/>
    </contour>
  </outline>
</glyph>
<glyph name="period" format="1">
  <advance width="434"/>
  <unicode hex="002E"/>
  <outline>
    <contour>
      <point x="130" y="0" type="curve" smooth="yes"/>
      <point x="302" y="0" type="line" smooth="yes"/>
      <point x="317" y="0"/>
      <point x="329" y="4"/>
      <point x="329" y="47" type="curve" smooth="yes"/>
      <point x="329" y="233" type="line" smooth="yes"/>
      <point x="329" y="276"/>
      <point x="317" y="280"/>
      <point x="302" y="280" type="curve" smooth="yes"/>
      <point x="130" y="280" type="line" smooth="yes"/>
      <point x="115" y="280"/>
      <point x="103" y="276"/>
      <point x="103" y="233" type="curve" smooth="yes"/>
      <point x="103" y="47" type="line" smooth="yes"/>
      <point x="103" y="4"/>
      <point x="115" y="0"/>
    </contour>
  </outline>
</glyph>
<glyph name="slash" format="1">
  <advance width="622"/>
  <unicode hex="002F"/>
  <outline>
    <contour>
      <point x="282" y="-207" type="line" smooth="yes"/>
      <point x="289" y="-207"/>
      <point x="296" y="-193"/>
      <point x="299" y="-172" type="curve" smooth="yes"/>
      <point x="534" y="1612" type="line" smooth="yes"/>
      <point x="537" y="1629"/>
      <point x="532" y="1647"/>
      <point x="525" y="1647" type="curve" smooth="yes"/>
      <point x="344" y="1647" type="line" smooth="yes"/>
      <point x="336" y="1647"/>
      <point x="329" y="1633"/>
      <point x="326" y="1612" type="curve" smooth="yes"/>
      <point x="91" y="-170" type="line" smooth="yes"/>
      <point x="89" y="-187"/>
      <point x="94" y="-205"/>
      <point x="99" y="-205" type="curve" smooth="yes"/>
    </contour>
  </outline>
</glyph>
<glyph name="zero" format="1">
  <advance width="947"/>
  <unicode hex="0030"/>
  <outline>
    <contour>
      <point x="474" y="356" type="curve" smooth="yes"/>
      <point x="408" y="356"/>
      <point x="378" y="438"/>
      <point x="378" y="721" type="curve" smooth="yes"/>
      <point x="378" y="1004"/>
      <point x="408" y="1085"/>
      <point x="474" y="1085" type="curve" smooth="yes"/>
      <point x="541" y="1085"/>
      <point x="568" y="1004"/>
      <point x="568" y="721" type="curve" smooth="yes"/>
      <point x="568" y="438"/>
      <point x="541" y="356"/>
    </contour>
    <contour>
      <point x="474" y="-41" type="curve" smooth="yes"/>
      <point x="656" y="-41"/>
      <point x="834" y="72"/>
      <point x="834" y="721" type="curve" smooth="yes"/>
      <point x="834" y="1323"/>
      <point x="656" y="1475"/>
      <point x="474" y="1475" type="curve" smooth="yes"/>
      <point x="293" y="1475"/>
      <point x="111" y="1323"/>
      <point x="111" y="721" type="curve" smooth="yes"/>
      <point x="111" y="72"/>
      <point x="293" y="-41"/>
    </contour>
  </outline>
</glyph>
<glyph name="one" format="1">
  <advance width="608"/>
  <unicode hex="0031"/>
  <outline>
    <contour>
      <point x="240" y="0" type="curve" smooth="yes"/>
      <point x="458" y="0" type="line" smooth="yes"/>
      <point x="473" y="0"/>
      <point x="485" y="34"/>
      <point x="485" y="77" type="curve" smooth="yes"/>
      <point x="485" y="1361" type="line" smooth="yes"/>
      <point x="485" y="1404"/>
      <point x="473" y="1440"/>
      <point x="458" y="1436" type="curve" smooth="yes"/>
      <point x="132" y="1355" type="line" smooth="yes"/>
      <point x="118" y="1352"/>
      <point x="106" y="1319"/>
      <point x="106" y="1276" type="curve" smooth="yes"/>
      <point x="106" y="1047" type="line" smooth="yes"/>
      <point x="106" y="1004"/>
      <point x="117" y="968"/>
      <point x="132" y="972" type="curve" smooth="yes"/>
      <point x="201" y="988" type="line"/>
      <point x="208" y="989"/>
      <point x="214" y="972"/>
      <point x="214" y="952" type="curve" smooth="yes"/>
      <point x="214" y="77" type="line" smooth="yes"/>
      <point x="214" y="34"/>
      <point x="226" y="0"/>
    </contour>
  </outline>
</glyph>
<glyph name="six" format="1">
  <advance width="912"/>
  <unicode hex="0036"/>
  <outline>
    <contour>
      <point x="465" y="-40" type="curve" smooth="yes"/>
      <point x="671" y="-40"/>
      <point x="820" y="56"/>
      <point x="820" y="447" type="curve" smooth="yes"/>
      <point x="820" y="728"/>
      <point x="720" y="934"/>
      <point x="495" y="934" type="curve" smooth="yes"/>
      <point x="450" y="934"/>
      <point x="410" y="909"/>
      <point x="367" y="890" type="curve"/>
      <point x="367" y="906" type="line" smooth="yes"/>
      <point x="366" y="1126"/>
      <point x="413" y="1134"/>
      <point x="499" y="1138" type="curve" smooth="yes"/>
      <point x="613" y="1143"/>
      <point x="723" y="1052"/>
      <point x="737" y="1045" type="curve"/>
      <point x="740" y="1043"/>
      <point x="743" y="1042"/>
      <point x="744" y="1042" type="curve" smooth="yes"/>
      <point x="753" y="1042"/>
      <point x="758" y="1055"/>
      <point x="759" y="1086" type="curve" smooth="yes"/>
      <point x="769" y="1293" type="line" smooth="yes"/>
      <point x="769" y="1298"/>
      <point x="769" y="1302"/>
      <point x="769" y="1306" type="curve" smooth="yes"/>
      <point x="769" y="1336"/>
      <point x="763" y="1353"/>
      <point x="751" y="1363" type="curve" smooth="yes"/>
      <point x="712" y="1396"/>
      <point x="565" y="1476"/>
      <point x="484" y="1476" type="curve" smooth="yes"/>
      <point x="196" y="1476"/>
      <point x="91" y="1215"/>
      <point x="91" y="658" type="curve" smooth="yes"/>
      <point x="91" y="177"/>
      <point x="254" y="-40"/>
    </contour>
    <contour>
      <point x="470" y="269" type="curve" smooth="yes"/>
      <point x="411" y="269"/>
      <point x="366" y="299"/>
      <point x="366" y="504" type="curve" smooth="yes"/>
      <point x="366" y="633" type="line"/>
      <point x="407" y="659"/>
      <point x="445" y="674"/>
      <point x="478" y="674" type="curve" smooth="yes"/>
      <point x="547" y="674"/>
      <point x="564" y="612"/>
      <point x="564" y="467" type="curve" smooth="yes"/>
      <point x="564" y="307"/>
      <point x="528" y="269"/>
    </contour>
  </outline>
</glyph>
<glyph name="seven" format="1">
  <advance width="640"/>
  <unicode hex="0037"/>
  <outline>
    <contour>
      <point x="205" y="0" type="curve" smooth="yes"/>
      <point x="405" y="0" type="line" smooth="yes"/>
      <point x="419" y="0"/>
      <point x="430" y="35"/>
      <point x="434" y="77" type="curve" smooth="yes"/>
      <point x="552" y="1361" type="line" smooth="yes"/>
      <point x="555" y="1403"/>
      <point x="542" y="1438"/>
      <point x="528" y="1438" type="curve" smooth="yes"/>
      <point x="108" y="1438" type="line" smooth="yes"/>
      <point x="93" y="1438"/>
      <point x="81" y="1404"/>
      <point x="81" y="1361" type="curve" smooth="yes"/>
      <point x="81" y="1132" type="line" smooth="yes"/>
      <point x="81" y="1089"/>
      <point x="93" y="1055"/>
      <point x="108" y="1055" type="curve" smooth="yes"/>
      <point x="264" y="1055" type="line" smooth="yes"/>
      <point x="271" y="1055"/>
      <point x="277" y="1038"/>
      <point x="275" y="1018" type="curve" smooth="yes"/>
      <point x="181" y="77" type="line" smooth="yes"/>
      <point x="177" y="35"/>
      <point x="190" y="0"/>
    </contour>
  </outline>
</glyph>
<glyph name="nine" format="1">
  <advance width="913"/>
  <unicode hex="0039"/>
  <outline>
    <contour>
      <point x="427" y="-40" type="curve" smooth="yes"/>
      <point x="715" y="-40"/>
      <point x="820" y="221"/>
      <point x="820" y="778" type="curve" smooth="yes"/>
      <point x="820" y="1259"/>
      <point x="657" y="1476"/>
      <point x="447" y="1476" type="curve" smooth="yes"/>
      <point x="240" y="1476"/>
      <point x="91" y="1380"/>
      <point x="91" y="989" type="curve" smooth="yes"/>
      <point x="91" y="708"/>
      <point x="192" y="502"/>
      <point x="416" y="502" type="curve" smooth="yes"/>
      <point x="462" y="502"/>
      <point x="501" y="527"/>
      <point x="544" y="546" type="curve"/>
      <point x="544" y="530" type="line" smooth="yes"/>
      <point x="544" y="310"/>
      <point x="497" y="302"/>
      <point x="412" y="298" type="curve" smooth="yes"/>
      <point x="298" y="293"/>
      <point x="187" y="384"/>
      <point x="175" y="391" type="curve"/>
      <point x="172" y="393"/>
      <point x="169" y="394"/>
      <point x="167" y="394" type="curve" smooth="yes"/>
      <point x="158" y="394"/>
      <point x="153" y="381"/>
      <point x="151" y="350" type="curve" smooth="yes"/>
      <point x="143" y="143" type="line"/>
      <point x="143" y="138"/>
      <point x="143" y="134"/>
      <point x="143" y="130" type="curve" smooth="yes"/>
      <point x="143" y="100"/>
      <point x="148" y="83"/>
      <point x="161" y="73" type="curve"/>
      <point x="199" y="40"/>
      <point x="345" y="-40"/>
    </contour>
    <contour>
      <point x="433" y="762" type="curve" smooth="yes"/>
      <point x="365" y="762"/>
      <point x="347" y="824"/>
      <point x="347" y="969" type="curve" smooth="yes"/>
      <point x="347" y="1129"/>
      <point x="383" y="1167"/>
      <point x="441" y="1167" type="curve" smooth="yes"/>
      <point x="501" y="1167"/>
      <point x="544" y="1137"/>
      <point x="544" y="932" type="curve" smooth="yes"/>
      <point x="544" y="803" type="line"/>
      <point x="504" y="777"/>
      <point x="466" y="762"/>
    </contour>
  </outline>
</glyph>
<glyph name="colon" format="1">
  <advance width="368"/>
  <unicode hex="003A"/>
  <outline>
    <contour>
      <point x="145" y="0" type="curve" smooth="yes"/>
      <point x="222" y="0" type="line" smooth="yes"/>
      <point x="237" y="0"/>
      <point x="249" y="34"/>
      <point x="249" y="77" type="curve" smooth="yes"/>
      <point x="249" y="273" type="line" smooth="yes"/>
      <point x="249" y="316"/>
      <point x="237" y="350"/>
      <point x="222" y="350" type="curve" smooth="yes"/>
      <point x="145" y="350" type="line" smooth="yes"/>
      <point x="130" y="350"/>
      <point x="118" y="316"/>
      <point x="118" y="273" type="curve" smooth="yes"/>
      <point x="118" y="77" type="line" smooth="yes"/>
      <point x="118" y="34"/>
      <point x="130" y="0"/>
    </contour>
    <contour>
      <point x="145" y="656" type="curve" smooth="yes"/>
      <point x="222" y="656" type="line" smooth="yes"/>
      <point x="237" y="656"/>
      <point x="249" y="690"/>
      <point x="249" y="733" type="curve" smooth="yes"/>
      <point x="249" y="929" type="line" smooth="yes"/>
      <point x="249" y="972"/>
      <point x="237" y="1006"/>
      <point x="222" y="1006" type="curve" smooth="yes"/>
      <point x="145" y="1006" type="line" smooth="yes"/>
      <point x="130" y="1006"/>
      <point x="118" y="972"/>
      <point x="118" y="929" type="curve" smooth="yes"/>
      <point x="118" y="733" type="line" smooth="yes"/>
      <point x="118" y="690"/>
      <point x="130" y="656"/>
    </contour>
  </outline>
</glyph>
<glyph name="semicolon" format="1">
  <advance width="374"/>
  <unicode hex="003B"/>
  <outline>
    <contour>
      <point x="145" y="-342" type="curve" smooth="yes"/>
      <point x="193" y="-319"/>
      <point x="255" y="-212"/>
      <point x="255" y="25" type="curve" smooth="yes"/>
      <point x="255" y="273" type="line" smooth="yes"/>
      <point x="255" y="316"/>
      <point x="243" y="350"/>
      <point x="229" y="350" type="curve" smooth="yes"/>
      <point x="140" y="350" type="line" smooth="yes"/>
      <point x="125" y="350"/>
      <point x="119" y="316"/>
      <point x="119" y="273" type="curve" smooth="yes"/>
      <point x="119" y="70" type="line" smooth="yes"/>
      <point x="119" y="32"/>
      <point x="126" y="0"/>
      <point x="140" y="0" type="curve" smooth="yes"/>
      <point x="166" y="0" type="line" smooth="yes"/>
      <point x="171" y="0"/>
      <point x="172" y="-11"/>
      <point x="172" y="-27" type="curve" smooth="yes"/>
      <point x="172" y="-51"/>
      <point x="166" y="-128"/>
      <point x="143" y="-171" type="curve" smooth="yes"/>
      <point x="128" y="-198"/>
      <point x="119" y="-192"/>
      <point x="119" y="-246" type="curve" smooth="yes"/>
      <point x="119" y="-297" type="line" smooth="yes"/>
      <point x="119" y="-333"/>
      <point x="133" y="-348"/>
    </contour>
    <contour>
      <point x="145" y="656" type="curve" smooth="yes"/>
      <point x="222" y="656" type="line" smooth="yes"/>
      <point x="237" y="656"/>
      <point x="249" y="690"/>
      <point x="249" y="733" type="curve" smooth="yes"/>
      <point x="249" y="929" type="line" smooth="yes"/>
      <point x="249" y="972"/>
      <point x="237" y="1006"/>
      <point x="222" y="1006" type="curve" smooth="yes"/>
      <point x="145" y="1006" type="line" smooth="yes"/>
      <point x="130" y="1006"/>
      <point x="118" y="972"/>
      <point x="118" y="929" type="curve" smooth="yes"/>
      <point x="118" y="733" type="line" smooth="yes"/>
      <point x="118" y="690"/>
      <point x="130" y="656"/>
    </contour>
  </outline>
</glyph>
<glyph name="less" format="1">
  <advance width="576"/>
  <unicode hex="003C"/>
  <outline>
    <contour>
      <point x="440" y="-100" type="curve" smooth="yes"/>
      <point x="447" y="-100"/>
      <point x="455" y="-81"/>
      <point x="455" y="-54" type="curve" smooth="yes"/>
      <point x="455" y="326" type="line" smooth="yes"/>
      <point x="455" y="372"/>
      <point x="446" y="416"/>
      <point x="431" y="436" type="curve" smooth="yes"/>
      <point x="259" y="674" type="line"/>
      <point x="256" y="677"/>
      <point x="255" y="684"/>
      <point x="255" y="690" type="curve" smooth="yes"/>
      <point x="255" y="696"/>
      <point x="256" y="702"/>
      <point x="258" y="706" type="curve"/>
      <point x="431" y="942" type="line" smooth="yes"/>
      <point x="445" y="961"/>
      <point x="455" y="1005"/>
      <point x="455" y="1051" type="curve" smooth="yes"/>
      <point x="455" y="1461" type="line" smooth="yes"/>
      <point x="455" y="1488"/>
      <point x="447" y="1507"/>
      <point x="439" y="1507" type="curve" smooth="yes"/>
      <point x="437" y="1507"/>
      <point x="435" y="1506"/>
      <point x="432" y="1502" type="curve"/>
      <point x="134" y="1035" type="line" smooth="yes"/>
      <point x="120" y="1013"/>
      <point x="111" y="969"/>
      <point x="111" y="922" type="curve" smooth="yes"/>
      <point x="111" y="505" type="line" smooth="yes"/>
      <point x="111" y="458"/>
      <point x="119" y="413"/>
      <point x="133" y="391" type="curve" smooth="yes"/>
      <point x="432" y="-94" type="line"/>
      <point x="435" y="-98"/>
      <point x="438" y="-100"/>
    </contour>
  </outline>
</glyph>
<glyph name="equal" format="1">
  <advance width="489"/>
  <unicode hex="003D"/>
  <outline>
    <contour>
      <point x="100" y="243" type="curve" smooth="yes"/>
      <point x="389" y="243" type="line" smooth="yes"/>
      <point x="403" y="243"/>
      <point x="415" y="267"/>
      <point x="415" y="310" type="curve" smooth="yes"/>
      <point x="415" y="371" type="line" smooth="yes"/>
      <point x="415" y="414"/>
      <point x="403" y="438"/>
      <point x="389" y="438" type="curve" smooth="yes"/>
      <point x="100" y="438" type="line" smooth="yes"/>
      <point x="85" y="438"/>
      <point x="73" y="414"/>
      <point x="73" y="371" type="curve" smooth="yes"/>
      <point x="73" y="310" type="line" smooth="yes"/>
      <point x="73" y="267"/>
      <point x="85" y="243"/>
    </contour>
    <contour>
      <point x="100" y="673" type="curve" smooth="yes"/>
      <point x="389" y="673" type="line" smooth="yes"/>
      <point x="403" y="673"/>
      <point x="415" y="697"/>
      <point x="415" y="740" type="curve" smooth="yes"/>
      <point x="415" y="811" type="line" smooth="yes"/>
      <point x="415" y="854"/>
      <point x="403" y="868"/>
      <point x="389" y="868" type="curve" smooth="yes"/>
      <point x="100" y="868" type="line" smooth="yes"/>
      <point x="85" y="868"/>
      <point x="73" y="854"/>
      <point x="73" y="811" type="curve" smooth="yes"/>
      <point x="73" y="740" type="line" smooth="yes"/>
      <point x="73" y="697"/>
      <point x="85" y="673"/>
    </contour>
  </outline>
</glyph>
<glyph name="greater" format="1">
  <advance width="578"/>
  <unicode hex="003E"/>
  <outline>
    <contour>
      <point x="137" y="-100" type="curve" smooth="yes"/>
      <point x="140" y="-100"/>
      <point x="141" y="-99"/>
      <point x="144" y="-95" type="curve"/>
      <point x="441" y="372" type="line" smooth="yes"/>
      <point x="455" y="394"/>
      <point x="465" y="438"/>
      <point x="465" y="485" type="curve" smooth="yes"/>
      <point x="465" y="902" type="line" smooth="yes"/>
      <point x="465" y="949"/>
      <point x="456" y="994"/>
      <point x="442" y="1016" type="curve" smooth="yes"/>
      <point x="144" y="1501" type="line"/>
      <point x="141" y="1505"/>
      <point x="139" y="1507"/>
      <point x="137" y="1507" type="curve" smooth="yes"/>
      <point x="129" y="1507"/>
      <point x="121" y="1488"/>
      <point x="121" y="1461" type="curve" smooth="yes"/>
      <point x="121" y="1081" type="line" smooth="yes"/>
      <point x="121" y="1035"/>
      <point x="130" y="991"/>
      <point x="145" y="971" type="curve" smooth="yes"/>
      <point x="317" y="733" type="line"/>
      <point x="320" y="730"/>
      <point x="322" y="723"/>
      <point x="322" y="717" type="curve" smooth="yes"/>
      <point x="322" y="711"/>
      <point x="320" y="705"/>
      <point x="318" y="701" type="curve"/>
      <point x="144" y="465" type="line" smooth="yes"/>
      <point x="130" y="446"/>
      <point x="121" y="402"/>
      <point x="121" y="356" type="curve" smooth="yes"/>
      <point x="121" y="-54" type="line" smooth="yes"/>
      <point x="121" y="-81"/>
      <point x="129" y="-100"/>
    </contour>
  </outline>
</glyph>
<glyph name="question" format="1">
  <advance width="913.350957035"/>
  <unicode hex="003F"/>
  <outline>
    <contour>
      <point x="383.87733889" y="551" type="curve" smooth="yes"/>
      <point x="412.87733889" y="575"/>
      <point x="480.87733889" y="624"/>
      <point x="548.87733889" y="660" type="curve" smooth="yes"/>
      <point x="676.87733889" y="728"/>
      <point x="859.87733889" y="828"/>
      <point x="848.87733889" y="1066" type="curve" smooth="yes"/>
      <point x="832.87733889" y="1417"/>
      <point x="626.87733889" y="1475"/>
      <point x="434.87733889" y="1475" type="curve" smooth="yes"/>
      <point x="302.87733889" y="1475"/>
      <point x="150.87733889" y="1426"/>
      <point x="78.8773388899" y="1378" type="curve" smooth="yes"/>
      <point x="59.8773388899" y="1365"/>
      <point x="45.8773388899" y="1331"/>
      <point x="56.8773388899" y="1297" type="curve" smooth="yes"/>
      <point x="81.8773388899" y="1213" type="line" smooth="yes"/>
      <point x="93.8773388899" y="1174"/>
      <point x="110.87733889" y="1154"/>
      <point x="132.87733889" y="1167" type="curve" smooth="yes"/>
      <point x="215.87733889" y="1216"/>
      <point x="303.87733889" y="1246"/>
      <point x="430.87733889" y="1246" type="curve" smooth="yes"/>
      <point x="509.87733889" y="1246"/>
      <point x="609.87733889" y="1204"/>
      <point x="617.87733889" y="1056" type="curve" smooth="yes"/>
      <point x="623.87733889" y="950"/>
      <point x="577.87733889" y="899"/>
      <point x="498.87733889" y="855" type="curve" smooth="yes"/>
      <point x="390.87733889" y="795"/>
      <point x="343.87733889" y="764"/>
      <point x="284.87733889" y="709" type="curve" smooth="yes"/>
      <point x="259.87733889" y="685"/>
      <point x="257.87733889" y="651"/>
      <point x="273.87733889" y="615" type="curve" smooth="yes"/>
      <point x="280.87733889" y="599"/>
      <point x="297.87733889" y="574"/>
      <point x="312.87733889" y="550" type="curve" smooth="yes"/>
      <point x="334.87733889" y="514"/>
      <point x="372.87733889" y="542"/>
    </contour>
    <contour>
      <point x="307.87733889" y="0" type="curve" smooth="yes"/>
      <point x="451.87733889" y="0" type="line" smooth="yes"/>
      <point x="486.87733889" y="0"/>
      <point x="511.87733889" y="31"/>
      <point x="511.87733889" y="74" type="curve" smooth="yes"/>
      <point x="511.87733889" y="228" type="line" smooth="yes"/>
      <point x="511.87733889" y="271"/>
      <point x="486.87733889" y="302"/>
      <point x="451.87733889" y="302" type="curve" smooth="yes"/>
      <point x="307.87733889" y="302" type="line" smooth="yes"/>
      <point x="272.87733889" y="302"/>
      <point x="247.87733889" y="271"/>
      <point x="247.87733889" y="228" type="curve" smooth="yes"/>
      <point x="247.87733889" y="74" type="line" smooth="yes"/>
      <point x="247.87733889" y="31"/>
      <point x="272.87733889" y="0"/>
    </contour>
  </outline>
</glyph>
<glyph name="A" format="1">
  <advance width="862"/>
  <unicode hex="0041"/>
  <outline>
    <contour>
      <point x="62" y="0" type="curve" smooth="yes"/>
      <point x="235" y="0" type="line" smooth="yes"/>
      <point x="250" y="0"/>
      <point x="263" y="-6"/>
      <point x="268" y="36" type="curve" smooth="yes"/>
      <point x="301" y="263" type="line"/>
      <point x="305" y="283"/>
      <point x="305" y="296"/>
      <point x="316" y="296" type="curve" smooth="yes"/>
      <point x="504" y="296" type="line" smooth="yes"/>
      <point x="515" y="296"/>
      <point x="515" y="284"/>
      <point x="519" y="264" type="curve" smooth="yes"/>
      <point x="549" y="35" type="line" smooth="yes"/>
      <point x="556" y="-6"/>
      <point x="568" y="0"/>
      <point x="584" y="0" type="curve" smooth="yes"/>
      <point x="812" y="0" type="line" smooth="yes"/>
      <point x="822" y="0"/>
      <point x="829" y="2"/>
      <point x="829" y="27" type="curve" smooth="yes"/>
      <point x="829" y="34"/>
      <point x="828" y="62"/>
      <point x="827" y="69" type="curve" smooth="yes"/>
      <point x="617" y="1393" type="line" smooth="yes"/>
      <point x="610" y="1434"/>
      <point x="596" y="1438"/>
      <point x="580" y="1438" type="curve" smooth="yes"/>
      <point x="292" y="1438" type="line" smooth="yes"/>
      <point x="276" y="1438"/>
      <point x="262" y="1434"/>
      <point x="255" y="1393" type="curve" smooth="yes"/>
      <point x="47" y="69" type="line"/>
      <point x="47" y="62"/>
      <point x="46" y="34"/>
      <point x="46" y="27" type="curve" smooth="yes"/>
      <point x="46" y="2"/>
      <point x="53" y="0"/>
    </contour>
    <contour>
      <point x="346" y="456" type="line" smooth="yes"/>
      <point x="331" y="456"/>
      <point x="328" y="468"/>
      <point x="328" y="481" type="curve" smooth="yes"/>
      <point x="328" y="484"/>
      <point x="328" y="487"/>
      <point x="329" y="490" type="curve"/>
      <point x="420" y="1157" type="line" smooth="yes"/>
      <point x="421" y="1163"/>
      <point x="423" y="1166"/>
      <point x="425" y="1166" type="curve" smooth="yes"/>
      <point x="427" y="1166"/>
      <point x="428" y="1163"/>
      <point x="429" y="1156" type="curve" smooth="yes"/>
      <point x="507" y="491" type="line"/>
      <point x="508" y="488"/>
      <point x="508" y="484"/>
      <point x="508" y="481" type="curve" smooth="yes"/>
      <point x="508" y="468"/>
      <point x="505" y="456"/>
      <point x="499" y="456" type="curve" smooth="yes"/>
    </contour>
  </outline>
</glyph>
<glyph name="B" format="1">
  <advance width="922"/>
  <unicode hex="0042"/>
  <outline>
    <contour>
      <point x="149" y="0" type="curve" smooth="yes"/>
      <point x="537" y="0" type="line" smooth="yes"/>
      <point x="709" y="0"/>
      <point x="854" y="96"/>
      <point x="854" y="424" type="curve" smooth="yes"/>
      <point x="854" y="590"/>
      <point x="826" y="695"/>
      <point x="751" y="757" type="curve" smooth="yes"/>
      <point x="746" y="761"/>
      <point x="739" y="766"/>
      <point x="739" y="772" type="curve" smooth="yes"/>
      <point x="739" y="777"/>
      <point x="746" y="783"/>
      <point x="750" y="788" type="curve"/>
      <point x="801" y="843"/>
      <point x="820" y="929"/>
      <point x="820" y="1040" type="curve" smooth="yes"/>
      <point x="820" y="1339"/>
      <point x="699" y="1438"/>
      <point x="553" y="1438" type="curve" smooth="yes"/>
      <point x="149" y="1438" type="line" smooth="yes"/>
      <point x="134" y="1438"/>
      <point x="122" y="1433"/>
      <point x="122" y="1390" type="curve" smooth="yes"/>
      <point x="122" y="48" type="line" smooth="yes"/>
      <point x="122" y="5"/>
      <point x="134" y="0"/>
    </contour>
    <contour>
      <point x="397" y="204" type="line" smooth="yes"/>
      <point x="390" y="204"/>
      <point x="384" y="206"/>
      <point x="384" y="226" type="curve" smooth="yes"/>
      <point x="384" y="629" type="line" smooth="yes"/>
      <point x="384" y="649"/>
      <point x="390" y="656"/>
      <point x="397" y="656" type="curve" smooth="yes"/>
      <point x="490" y="656" type="line" smooth="yes"/>
      <point x="562" y="656"/>
      <point x="602" y="551"/>
      <point x="602" y="430" type="curve" smooth="yes"/>
      <point x="602" y="295"/>
      <point x="536" y="204"/>
      <point x="473" y="204" type="curve" smooth="yes"/>
    </contour>
    <contour>
      <point x="397" y="853" type="line" smooth="yes"/>
      <point x="390" y="853"/>
      <point x="384" y="856"/>
      <point x="384" y="876" type="curve" smooth="yes"/>
      <point x="384" y="1207" type="line" smooth="yes"/>
      <point x="384" y="1227"/>
      <point x="390" y="1230"/>
      <point x="397" y="1230" type="curve" smooth="yes"/>
      <point x="469" y="1230" type="line" smooth="yes"/>
      <point x="525" y="1230"/>
      <point x="585" y="1164"/>
      <point x="585" y="1029" type="curve" smooth="yes"/>
      <point x="585" y="929"/>
      <point x="551" y="853"/>
      <point x="496" y="853" type="curve" smooth="yes"/>
    </contour>
  </outline>
</glyph>
<glyph name="C" format="1">
  <advance width="771"/>
  <unicode hex="0043"/>
  <outline>
    <contour>
      <point x="533" y="-20" type="curve" smooth="yes"/>
      <point x="597" y="-20"/>
      <point x="659" y="-10"/>
      <point x="696" y="5" type="curve"/>
      <point x="705" y="33" type="line"/>
      <point x="705" y="183" type="line"/>
      <point x="696" y="211" type="line"/>
      <point x="660" y="199"/>
      <point x="631" y="193"/>
      <point x="573" y="193" type="curve" smooth="yes"/>
      <point x="432" y="193"/>
      <point x="354" y="253"/>
      <point x="354" y="719" type="curve" smooth="yes"/>
      <point x="354" y="1180"/>
      <point x="447" y="1244"/>
      <point x="583" y="1244" type="curve" smooth="yes"/>
      <point x="643" y="1244"/>
      <point x="695" y="1227"/>
      <point x="699" y="1227" type="curve" smooth="yes"/>
      <point x="703" y="1227"/>
      <point x="706" y="1228"/>
      <point x="706" y="1243" type="curve" smooth="yes"/>
      <point x="706" y="1408" type="line" smooth="yes"/>
      <point x="706" y="1425"/>
      <point x="699" y="1424"/>
      <point x="696" y="1429" type="curve"/>
      <point x="659" y="1447"/>
      <point x="587" y="1460"/>
      <point x="535" y="1460" type="curve" smooth="yes"/>
      <point x="300" y="1460"/>
      <point x="92" y="1381"/>
      <point x="92" y="719" type="curve" smooth="yes"/>
      <point x="92" y="56"/>
      <point x="288" y="-20"/>
    </contour>
  </outline>
</glyph>
<glyph name="D" format="1">
  <advance width="952"/>
  <unicode hex="0044"/>
  <outline>
    <contour>
      <point x="450" y="215" type="curve" smooth="yes"/>
      <point x="428" y="215"/>
      <point x="404" y="215"/>
      <point x="378" y="216" type="curve" smooth="yes"/>
      <point x="371" y="216"/>
      <point x="365" y="220"/>
      <point x="365" y="240" type="curve" smooth="yes"/>
      <point x="365" y="444"/>
      <point x="365" y="994"/>
      <point x="365" y="1198" type="curve" smooth="yes"/>
      <point x="365" y="1218"/>
      <point x="371" y="1225"/>
      <point x="378" y="1225" type="curve" smooth="yes"/>
      <point x="400" y="1225"/>
      <point x="439" y="1225"/>
      <point x="461" y="1225" type="curve" smooth="yes"/>
      <point x="527" y="1225"/>
      <point x="596" y="1163"/>
      <point x="596" y="729" type="curve" smooth="yes"/>
      <point x="596" y="289"/>
      <point x="541" y="215"/>
    </contour>
    <contour>
      <point x="130" y="0" type="curve" smooth="yes"/>
      <point x="449" y="0"/>
      <point x="453" y="0"/>
      <point x="464" y="0" type="curve" smooth="yes"/>
      <point x="703" y="0"/>
      <point x="858" y="18"/>
      <point x="858" y="733" type="curve" smooth="yes"/>
      <point x="858" y="1262"/>
      <point x="722" y="1438"/>
      <point x="505" y="1438" type="curve" smooth="yes"/>
      <point x="130" y="1438" type="line" smooth="yes"/>
      <point x="115" y="1438"/>
      <point x="103" y="1434"/>
      <point x="103" y="1391" type="curve" smooth="yes"/>
      <point x="103" y="47" type="line" smooth="yes"/>
      <point x="103" y="4"/>
      <point x="115" y="0"/>
    </contour>
  </outline>
</glyph>
<glyph name="E" format="1">
  <advance width="865"/>
  <unicode hex="0045"/>
  <outline>
    <contour>
      <point x="150" y="0" type="curve" smooth="yes"/>
      <point x="757" y="0" type="line" smooth="yes"/>
      <point x="772" y="0"/>
      <point x="784" y="4"/>
      <point x="784" y="47" type="curve" smooth="yes"/>
      <point x="784" y="168" type="line" smooth="yes"/>
      <point x="784" y="211"/>
      <point x="772" y="215"/>
      <point x="757" y="215" type="curve" smooth="yes"/>
      <point x="385" y="215" type="line"/>
      <point x="385" y="571" type="line" smooth="yes"/>
      <point x="385" y="591"/>
      <point x="391" y="608"/>
      <point x="398" y="608" type="curve" smooth="yes"/>
      <point x="640" y="608" type="line" smooth="yes"/>
      <point x="655" y="608"/>
      <point x="666" y="622"/>
      <point x="666" y="665" type="curve" smooth="yes"/>
      <point x="666" y="779" type="line" smooth="yes"/>
      <point x="666" y="822"/>
      <point x="655" y="836"/>
      <point x="640" y="836" type="curve" smooth="yes"/>
      <point x="398" y="836" type="line" smooth="yes"/>
      <point x="391" y="836"/>
      <point x="385" y="853"/>
      <point x="385" y="873" type="curve" smooth="yes"/>
      <point x="385" y="1188" type="line" smooth="yes"/>
      <point x="385" y="1208"/>
      <point x="391" y="1225"/>
      <point x="398" y="1225" type="curve" smooth="yes"/>
      <point x="757" y="1225" type="line" smooth="yes"/>
      <point x="772" y="1225"/>
      <point x="784" y="1229"/>
      <point x="784" y="1272" type="curve" smooth="yes"/>
      <point x="784" y="1391" type="line" smooth="yes"/>
      <point x="784" y="1434"/>
      <point x="772" y="1438"/>
      <point x="757" y="1438" type="curve" smooth="yes"/>
      <point x="150" y="1438" type="line" smooth="yes"/>
      <point x="135" y="1438"/>
      <point x="123" y="1434"/>
      <point x="123" y="1391" type="curve" smooth="yes"/>
      <point x="123" y="47" type="line" smooth="yes"/>
      <point x="123" y="4"/>
      <point x="135" y="0"/>
    </contour>
  </outline>
</glyph>
<glyph name="F" format="1">
  <advance width="876"/>
  <unicode hex="0046"/>
  <outline>
    <contour>
      <point x="150" y="0" type="curve" smooth="yes"/>
      <point x="359" y="0" type="line" smooth="yes"/>
      <point x="373" y="0"/>
      <point x="385" y="4"/>
      <point x="385" y="47" type="curve" smooth="yes"/>
      <point x="385" y="543" type="line" smooth="yes"/>
      <point x="385" y="563"/>
      <point x="391" y="573"/>
      <point x="398" y="573" type="curve" smooth="yes"/>
      <point x="640" y="573" type="line" smooth="yes"/>
      <point x="655" y="573"/>
      <point x="666" y="577"/>
      <point x="666" y="620" type="curve" smooth="yes"/>
      <point x="666" y="754" type="line" smooth="yes"/>
      <point x="666" y="797"/>
      <point x="655" y="801"/>
      <point x="640" y="801" type="curve" smooth="yes"/>
      <point x="398" y="801" type="line" smooth="yes"/>
      <point x="391" y="801"/>
      <point x="385" y="808"/>
      <point x="385" y="828" type="curve" smooth="yes"/>
      <point x="385" y="1198" type="line" smooth="yes"/>
      <point x="385" y="1218"/>
      <point x="391" y="1225"/>
      <point x="398" y="1225" type="curve" smooth="yes"/>
      <point x="757" y="1225" type="line" smooth="yes"/>
      <point x="772" y="1225"/>
      <point x="784" y="1229"/>
      <point x="784" y="1272" type="curve" smooth="yes"/>
      <point x="784" y="1391" type="line" smooth="yes"/>
      <point x="784" y="1434"/>
      <point x="772" y="1438"/>
      <point x="757" y="1438" type="curve" smooth="yes"/>
      <point x="150" y="1438" type="line" smooth="yes"/>
      <point x="135" y="1438"/>
      <point x="123" y="1433"/>
      <point x="123" y="1390" type="curve" smooth="yes"/>
      <point x="123" y="47" type="line" smooth="yes"/>
      <point x="123" y="4"/>
      <point x="135" y="0"/>
    </contour>
  </outline>
</glyph>
<glyph name="G" format="1">
  <advance width="937"/>
  <unicode hex="0047"/>
  <outline>
    <contour>
      <point x="823" y="-21" type="curve" smooth="yes"/>
      <point x="837" y="-21"/>
      <point x="859" y="13"/>
      <point x="859" y="56" type="curve" smooth="yes"/>
      <point x="859" y="703" type="line" smooth="yes"/>
      <point x="859" y="746"/>
      <point x="847" y="780"/>
      <point x="833" y="780" type="curve" smooth="yes"/>
      <point x="562" y="780" type="line" smooth="yes"/>
      <point x="547" y="780"/>
      <point x="535" y="772"/>
      <point x="535" y="729" type="curve" smooth="yes"/>
      <point x="535" y="609" type="line" smooth="yes"/>
      <point x="535" y="566"/>
      <point x="547" y="560"/>
      <point x="562" y="560" type="curve" smooth="yes"/>
      <point x="627" y="560" type="line" smooth="yes"/>
      <point x="632" y="560"/>
      <point x="636" y="547"/>
      <point x="636" y="534" type="curve" smooth="yes"/>
      <point x="636" y="309"/>
      <point x="622" y="200"/>
      <point x="535" y="194" type="curve" smooth="yes"/>
      <point x="419" y="186"/>
      <point x="352" y="293"/>
      <point x="352" y="719" type="curve" smooth="yes"/>
      <point x="352" y="1161"/>
      <point x="431" y="1241"/>
      <point x="586" y="1244" type="curve" smooth="yes"/>
      <point x="646" y="1245"/>
      <point x="755" y="1214"/>
      <point x="759" y="1214" type="curve" smooth="yes"/>
      <point x="763" y="1214"/>
      <point x="766" y="1215"/>
      <point x="766" y="1230" type="curve" smooth="yes"/>
      <point x="766" y="1398" type="line" smooth="yes"/>
      <point x="766" y="1415"/>
      <point x="759" y="1414"/>
      <point x="756" y="1419" type="curve"/>
      <point x="719" y="1437"/>
      <point x="630" y="1460"/>
      <point x="578" y="1460" type="curve" smooth="yes"/>
      <point x="323" y="1460"/>
      <point x="90" y="1391"/>
      <point x="90" y="719" type="curve" smooth="yes"/>
      <point x="90" y="66"/>
      <point x="293" y="-20"/>
      <point x="492" y="-20" type="curve" smooth="yes"/>
      <point x="623" y="-20"/>
      <point x="693" y="58"/>
      <point x="712" y="206" type="curve"/>
      <point x="714" y="213"/>
      <point x="716" y="216"/>
      <point x="718" y="216" type="curve" smooth="yes"/>
      <point x="720" y="216"/>
      <point x="723" y="212"/>
      <point x="723" y="204" type="curve"/>
      <point x="760" y="49" type="line" smooth="yes"/>
      <point x="774" y="-9"/>
      <point x="807" y="-21"/>
    </contour>
  </outline>
</glyph>
<glyph name="H" format="1">
  <advance width="1001"/>
  <unicode hex="0048"/>
  <outline>
    <contour>
      <point x="150" y="0" type="curve" smooth="yes"/>
      <point x="361" y="0" type="line" smooth="yes"/>
      <point x="376" y="0"/>
      <point x="387" y="4"/>
      <point x="387" y="47" type="curve" smooth="yes"/>
      <point x="387" y="646" type="line" smooth="yes"/>
      <point x="387" y="666"/>
      <point x="393" y="669"/>
      <point x="400" y="669" type="curve" smooth="yes"/>
      <point x="602" y="669" type="line" smooth="yes"/>
      <point x="609" y="669"/>
      <point x="615" y="666"/>
      <point x="615" y="646" type="curve" smooth="yes"/>
      <point x="615" y="47" type="line" smooth="yes"/>
      <point x="615" y="4"/>
      <point x="627" y="0"/>
      <point x="642" y="0" type="curve" smooth="yes"/>
      <point x="852" y="0" type="line" smooth="yes"/>
      <point x="867" y="0"/>
      <point x="878" y="4"/>
      <point x="878" y="47" type="curve" smooth="yes"/>
      <point x="878" y="1391" type="line" smooth="yes"/>
      <point x="878" y="1434"/>
      <point x="867" y="1438"/>
      <point x="852" y="1438" type="curve" smooth="yes"/>
      <point x="642" y="1438" type="line" smooth="yes"/>
      <point x="627" y="1438"/>
      <point x="616" y="1434"/>
      <point x="616" y="1391" type="curve" smooth="yes"/>
      <point x="616" y="901" type="line" smooth="yes"/>
      <point x="616" y="881"/>
      <point x="610" y="874"/>
      <point x="603" y="874" type="curve" smooth="yes"/>
      <point x="398" y="874" type="line" smooth="yes"/>
      <point x="391" y="874"/>
      <point x="385" y="881"/>
      <point x="385" y="901" type="curve" smooth="yes"/>
      <point x="385" y="1391" type="line" smooth="yes"/>
      <point x="385" y="1434"/>
      <point x="374" y="1438"/>
      <point x="359" y="1438" type="curve" smooth="yes"/>
      <point x="150" y="1438" type="line" smooth="yes"/>
      <point x="135" y="1438"/>
      <point x="123" y="1434"/>
      <point x="123" y="1391" type="curve" smooth="yes"/>
      <point x="123" y="47" type="line" smooth="yes"/>
      <point x="123" y="4"/>
      <point x="135" y="0"/>
    </contour>
  </outline>
</glyph>
<glyph name="J" format="1">
  <advance width="607"/>
  <unicode hex="004A"/>
  <outline>
    <contour>
      <point x="112" y="-162" type="curve" smooth="yes"/>
      <point x="288" y="-162"/>
      <point x="486" y="-139"/>
      <point x="486" y="434" type="curve" smooth="yes"/>
      <point x="486" y="1401" type="line" smooth="yes"/>
      <point x="486" y="1421"/>
      <point x="479" y="1438"/>
      <point x="473" y="1438" type="curve" smooth="yes"/>
      <point x="236" y="1438" type="line" smooth="yes"/>
      <point x="229" y="1438"/>
      <point x="224" y="1421"/>
      <point x="224" y="1401" type="curve" smooth="yes"/>
      <point x="224" y="514" type="line" smooth="yes"/>
      <point x="224" y="114"/>
      <point x="181" y="109"/>
      <point x="113" y="100" type="curve" smooth="yes"/>
      <point x="105" y="99"/>
      <point x="99" y="82"/>
      <point x="99" y="61" type="curve" smooth="yes"/>
      <point x="99" y="-127" type="line" smooth="yes"/>
      <point x="99" y="-147"/>
      <point x="105" y="-162"/>
    </contour>
  </outline>
</glyph>
<glyph name="K" format="1">
  <advance width="917"/>
  <unicode hex="004B"/>
  <outline>
    <contour>
      <point x="150" y="0" type="curve" smooth="yes"/>
      <point x="359" y="0" type="line" smooth="yes"/>
      <point x="373" y="0"/>
      <point x="385" y="4"/>
      <point x="385" y="47" type="curve" smooth="yes"/>
      <point x="385" y="655" type="line"/>
      <point x="520" y="47" type="line" smooth="yes"/>
      <point x="529" y="9"/>
      <point x="545" y="0"/>
      <point x="562" y="0" type="curve" smooth="yes"/>
      <point x="791" y="0" type="line" smooth="yes"/>
      <point x="802" y="0"/>
      <point x="813" y="20"/>
      <point x="806" y="46" type="curve" smooth="yes"/>
      <point x="640" y="694" type="line" smooth="yes"/>
      <point x="636" y="708"/>
      <point x="635" y="720"/>
      <point x="635" y="731" type="curve" smooth="yes"/>
      <point x="635" y="756"/>
      <point x="642" y="772"/>
      <point x="645" y="782" type="curve" smooth="yes"/>
      <point x="795" y="1390" type="line" smooth="yes"/>
      <point x="801" y="1414"/>
      <point x="799" y="1438"/>
      <point x="769" y="1438" type="curve" smooth="yes"/>
      <point x="577" y="1438" type="line" smooth="yes"/>
      <point x="561" y="1438"/>
      <point x="542" y="1427"/>
      <point x="534" y="1393" type="curve" smooth="yes"/>
      <point x="385" y="740" type="line"/>
      <point x="385" y="1391" type="line" smooth="yes"/>
      <point x="385" y="1434"/>
      <point x="373" y="1438"/>
      <point x="359" y="1438" type="curve" smooth="yes"/>
      <point x="150" y="1438" type="line" smooth="yes"/>
      <point x="135" y="1438"/>
      <point x="123" y="1434"/>
      <point x="123" y="1391" type="curve" smooth="yes"/>
      <point x="123" y="47" type="line" smooth="yes"/>
      <point x="123" y="4"/>
      <point x="135" y="0"/>
    </contour>
  </outline>
</glyph>
<glyph name="L" format="1">
  <advance width="781"/>
  <unicode hex="004C"/>
  <outline>
    <contour>
      <point x="150" y="0" type="curve" smooth="yes"/>
      <point x="655" y="0" type="line" smooth="yes"/>
      <point x="670" y="0"/>
      <point x="682" y="4"/>
      <point x="682" y="47" type="curve" smooth="yes"/>
      <point x="682" y="168" type="line" smooth="yes"/>
      <point x="682" y="211"/>
      <point x="670" y="215"/>
      <point x="655" y="215" type="curve" smooth="yes"/>
      <point x="398" y="215" type="line" smooth="yes"/>
      <point x="391" y="215"/>
      <point x="385" y="219"/>
      <point x="385" y="239" type="curve" smooth="yes"/>
      <point x="385" y="1391" type="line" smooth="yes"/>
      <point x="385" y="1434"/>
      <point x="373" y="1438"/>
      <point x="359" y="1438" type="curve" smooth="yes"/>
      <point x="150" y="1438" type="line" smooth="yes"/>
      <point x="135" y="1438"/>
      <point x="123" y="1434"/>
      <point x="123" y="1391" type="curve" smooth="yes"/>
      <point x="123" y="47" type="line" smooth="yes"/>
      <point x="123" y="4"/>
      <point x="135" y="0"/>
    </contour>
  </outline>
</glyph>
<glyph name="M" format="1">
  <advance width="1142"/>
  <unicode hex="004D"/>
  <outline>
    <contour>
      <point x="128" y="0" type="curve" smooth="yes"/>
      <point x="287" y="0" type="line" smooth="yes"/>
      <point x="302" y="0"/>
      <point x="313" y="4"/>
      <point x="313" y="47" type="curve" smooth="yes"/>
      <point x="343" y="808" type="line" smooth="yes"/>
      <point x="343" y="818"/>
      <point x="347" y="822"/>
      <point x="349" y="813" type="curve" smooth="yes"/>
      <point x="488" y="37" type="line" smooth="yes"/>
      <point x="497" y="-4"/>
      <point x="513" y="0"/>
      <point x="528" y="0" type="curve" smooth="yes"/>
      <point x="614" y="0" type="line" smooth="yes"/>
      <point x="631" y="0"/>
      <point x="646" y="-4"/>
      <point x="654" y="37" type="curve" smooth="yes"/>
      <point x="793" y="813" type="line" smooth="yes"/>
      <point x="795" y="822"/>
      <point x="800" y="818"/>
      <point x="800" y="808" type="curve" smooth="yes"/>
      <point x="830" y="47" type="line" smooth="yes"/>
      <point x="830" y="4"/>
      <point x="841" y="0"/>
      <point x="856" y="0" type="curve" smooth="yes"/>
      <point x="1013" y="0" type="line" smooth="yes"/>
      <point x="1029" y="0"/>
      <point x="1040" y="4"/>
      <point x="1040" y="47" type="curve" smooth="yes"/>
      <point x="996" y="1387" type="line" smooth="yes"/>
      <point x="996" y="1430"/>
      <point x="984" y="1438"/>
      <point x="970" y="1438" type="curve" smooth="yes"/>
      <point x="740" y="1438" type="line" smooth="yes"/>
      <point x="724" y="1438"/>
      <point x="708" y="1437"/>
      <point x="701" y="1397" type="curve" smooth="yes"/>
      <point x="577" y="622" type="line" smooth="yes"/>
      <point x="575" y="608"/>
      <point x="568" y="608"/>
      <point x="565" y="622" type="curve" smooth="yes"/>
      <point x="442" y="1397" type="line" smooth="yes"/>
      <point x="434" y="1437"/>
      <point x="419" y="1438"/>
      <point x="403" y="1438" type="curve" smooth="yes"/>
      <point x="171" y="1438" type="line" smooth="yes"/>
      <point x="156" y="1438"/>
      <point x="145" y="1430"/>
      <point x="145" y="1387" type="curve"/>
      <point x="102" y="47" type="line"/>
      <point x="102" y="4"/>
      <point x="114" y="0"/>
    </contour>
  </outline>
</glyph>
<glyph name="N" format="1">
  <advance width="1037"/>
  <unicode hex="004E"/>
  <outline>
    <contour>
      <point x="150" y="0" type="curve" smooth="yes"/>
      <point x="324" y="0" type="line" smooth="yes"/>
      <point x="339" y="0"/>
      <point x="351" y="3"/>
      <point x="351" y="46" type="curve" smooth="yes"/>
      <point x="351" y="848" type="line" smooth="yes"/>
      <point x="351" y="863"/>
      <point x="356" y="871"/>
      <point x="360" y="861" type="curve" smooth="yes"/>
      <point x="687" y="39" type="line" smooth="yes"/>
      <point x="698" y="8"/>
      <point x="717" y="-1"/>
      <point x="732" y="-1" type="curve" smooth="yes"/>
      <point x="888" y="-1" type="line" smooth="yes"/>
      <point x="902" y="-1"/>
      <point x="914" y="2"/>
      <point x="914" y="45" type="curve" smooth="yes"/>
      <point x="914" y="1381" type="line" smooth="yes"/>
      <point x="914" y="1424"/>
      <point x="902" y="1438"/>
      <point x="888" y="1438" type="curve" smooth="yes"/>
      <point x="718" y="1438" type="line" smooth="yes"/>
      <point x="704" y="1438"/>
      <point x="691" y="1424"/>
      <point x="691" y="1381" type="curve" smooth="yes"/>
      <point x="691" y="741" type="line" smooth="yes"/>
      <point x="691" y="726"/>
      <point x="685" y="719"/>
      <point x="682" y="728" type="curve" smooth="yes"/>
      <point x="420" y="1387" type="line" smooth="yes"/>
      <point x="409" y="1418"/>
      <point x="391" y="1438"/>
      <point x="375" y="1438" type="curve" smooth="yes"/>
      <point x="150" y="1438" type="line" smooth="yes"/>
      <point x="135" y="1438"/>
      <point x="123" y="1424"/>
      <point x="123" y="1381" type="curve" smooth="yes"/>
      <point x="123" y="46" type="line" smooth="yes"/>
      <point x="123" y="3"/>
      <point x="135" y="0"/>
    </contour>
  </outline>
</glyph>
<glyph name="O" format="1">
  <advance width="1022"/>
  <unicode hex="004F"/>
  <outline>
    <contour>
      <point x="510" y="193" type="curve" smooth="yes"/>
      <point x="404" y="193"/>
      <point x="376" y="304"/>
      <point x="376" y="727" type="curve" smooth="yes"/>
      <point x="376" y="1150"/>
      <point x="402" y="1244"/>
      <point x="512" y="1244" type="curve" smooth="yes"/>
      <point x="623" y="1244"/>
      <point x="646" y="1150"/>
      <point x="646" y="727" type="curve" smooth="yes"/>
      <point x="646" y="304"/>
      <point x="617" y="193"/>
    </contour>
    <contour>
      <point x="511" y="-20" type="curve" smooth="yes"/>
      <point x="783" y="-20"/>
      <point x="908" y="98"/>
      <point x="908" y="727" type="curve" smooth="yes"/>
      <point x="908" y="1349"/>
      <point x="773" y="1460"/>
      <point x="511" y="1460" type="curve" smooth="yes"/>
      <point x="250" y="1460"/>
      <point x="114" y="1349"/>
      <point x="114" y="727" type="curve" smooth="yes"/>
      <point x="114" y="98"/>
      <point x="240" y="-20"/>
    </contour>
  </outline>
</glyph>
<glyph name="P" format="1">
  <advance width="975"/>
  <unicode hex="0050"/>
  <outline>
    <contour>
      <point x="150" y="0" type="curve" smooth="yes"/>
      <point x="358" y="0" type="line" smooth="yes"/>
      <point x="373" y="0"/>
      <point x="385" y="14"/>
      <point x="385" y="57" type="curve" smooth="yes"/>
      <point x="385" y="447" type="line" smooth="yes"/>
      <point x="385" y="467"/>
      <point x="391" y="469"/>
      <point x="397" y="469" type="curve" smooth="yes"/>
      <point x="404" y="469"/>
      <point x="524" y="469"/>
      <point x="562" y="469" type="curve" smooth="yes"/>
      <point x="731" y="469"/>
      <point x="863" y="537"/>
      <point x="863" y="950" type="curve" smooth="yes"/>
      <point x="863" y="1390"/>
      <point x="725" y="1438"/>
      <point x="539" y="1438" type="curve" smooth="yes"/>
      <point x="405" y="1438"/>
      <point x="284" y="1438"/>
      <point x="150" y="1438" type="curve" smooth="yes"/>
      <point x="135" y="1438"/>
      <point x="123" y="1432"/>
      <point x="123" y="1390" type="curve" smooth="yes"/>
      <point x="123" y="57" type="line" smooth="yes"/>
      <point x="123" y="14"/>
      <point x="135" y="0"/>
    </contour>
    <contour>
      <point x="487" y="682" type="curve" smooth="yes"/>
      <point x="397" y="682" type="line" smooth="yes"/>
      <point x="391" y="682"/>
      <point x="385" y="685"/>
      <point x="385" y="705" type="curve" smooth="yes"/>
      <point x="385" y="1198" type="line" smooth="yes"/>
      <point x="385" y="1218"/>
      <point x="391" y="1225"/>
      <point x="397" y="1225" type="curve" smooth="yes"/>
      <point x="475" y="1225" type="line" smooth="yes"/>
      <point x="554" y="1225"/>
      <point x="601" y="1201"/>
      <point x="601" y="948" type="curve" smooth="yes"/>
      <point x="601" y="729"/>
      <point x="593" y="682"/>
    </contour>
  </outline>
</glyph>
<glyph name="Q" format="1">
  <advance width="1020"/>
  <unicode hex="0051"/>
  <outline>
    <contour>
      <point x="587" y="-430" type="curve" smooth="yes"/>
      <point x="694" y="-403" type="line" smooth="yes"/>
      <point x="717" y="-395"/>
      <point x="717" y="-360"/>
      <point x="710" y="-322" type="curve" smooth="yes"/>
      <point x="710" y="-323"/>
      <point x="664.25" y="-87.5"/>
      <point x="651" y="-17" type="curve"/>
      <point x="825" y="34"/>
      <point x="906" y="214"/>
      <point x="906" y="721" type="curve" smooth="yes"/>
      <point x="906" y="1343"/>
      <point x="771" y="1468"/>
      <point x="509" y="1468" type="curve" smooth="yes"/>
      <point x="248" y="1468"/>
      <point x="112" y="1343"/>
      <point x="112" y="721" type="curve" smooth="yes"/>
      <point x="112.0" y="149.793375015"/>
      <point x="215.339424122" y="-7.12456768036"/>
      <point x="438.187418734" y="-30.9173177379" type="curve" smooth="yes"/>
      <point x="446.299652943" y="-31.7834343985"/>
      <point x="454.570253372" y="-32.4731408358"/>
      <point x="463" y="-33" type="curve"/>
      <point x="520" y="-363" type="line" smooth="yes"/>
      <point x="531" y="-428"/>
      <point x="565" y="-438"/>
    </contour>
    <contour>
      <point x="508" y="195" type="curve" smooth="yes"/>
      <point x="402" y="195"/>
      <point x="374" y="298"/>
      <point x="374" y="721" type="curve" smooth="yes"/>
      <point x="374" y="1144"/>
      <point x="400" y="1245"/>
      <point x="510" y="1245" type="curve" smooth="yes"/>
      <point x="621" y="1245"/>
      <point x="644" y="1144"/>
      <point x="644" y="721" type="curve" smooth="yes"/>
      <point x="644" y="298"/>
      <point x="615" y="195"/>
    </contour>
  </outline>
</glyph>
<glyph name="R" format="1">
  <advance width="959"/>
  <unicode hex="0052"/>
  <outline>
    <contour>
      <point x="150" y="0" type="curve" smooth="yes"/>
      <point x="358" y="0" type="line" smooth="yes"/>
      <point x="373" y="0"/>
      <point x="385" y="4"/>
      <point x="385" y="47" type="curve" smooth="yes"/>
      <point x="385" y="572" type="line" smooth="yes"/>
      <point x="385" y="592"/>
      <point x="391" y="599"/>
      <point x="397" y="599" type="curve" smooth="yes"/>
      <point x="473" y="599" type="line" smooth="yes"/>
      <point x="480" y="599"/>
      <point x="488" y="599"/>
      <point x="496" y="598" type="curve"/>
      <point x="529" y="596"/>
      <point x="565" y="585"/>
      <point x="576" y="527" type="curve" smooth="yes"/>
      <point x="593" y="443"/>
      <point x="598" y="132"/>
      <point x="604" y="38" type="curve" smooth="yes"/>
      <point x="607" y="-15"/>
      <point x="617" y="0"/>
      <point x="639" y="0" type="curve" smooth="yes"/>
      <point x="849" y="0" type="line" smooth="yes"/>
      <point x="859" y="0"/>
      <point x="863" y="21"/>
      <point x="863" y="47" type="curve" smooth="yes"/>
      <point x="863" y="69"/>
      <point x="859" y="303"/>
      <point x="857" y="363" type="curve" smooth="yes"/>
      <point x="845" y="618"/>
      <point x="800" y="680"/>
      <point x="713" y="723" type="curve"/>
      <point x="712" y="723"/>
      <point x="712" y="725"/>
      <point x="712" y="727" type="curve" smooth="yes"/>
      <point x="712" y="729"/>
      <point x="712" y="731"/>
      <point x="713" y="732" type="curve"/>
      <point x="788" y="759"/>
      <point x="851" y="818"/>
      <point x="851" y="1032" type="curve" smooth="yes"/>
      <point x="851" y="1381"/>
      <point x="715" y="1438"/>
      <point x="542" y="1438" type="curve" smooth="yes"/>
      <point x="425" y="1438"/>
      <point x="150" y="1438"/>
      <point x="150" y="1438" type="curve"/>
      <point x="135" y="1438"/>
      <point x="123" y="1434"/>
      <point x="123" y="1391" type="curve" smooth="yes"/>
      <point x="123" y="47" type="line" smooth="yes"/>
      <point x="123" y="4"/>
      <point x="135" y="0"/>
    </contour>
    <contour>
      <point x="397" y="823" type="line" smooth="yes"/>
      <point x="391" y="823"/>
      <point x="385" y="840"/>
      <point x="385" y="860" type="curve" smooth="yes"/>
      <point x="385" y="1199" type="line" smooth="yes"/>
      <point x="385" y="1219"/>
      <point x="391" y="1225"/>
      <point x="397" y="1225" type="curve" smooth="yes"/>
      <point x="456" y="1225" type="line" smooth="yes"/>
      <point x="570" y="1225"/>
      <point x="589" y="1153"/>
      <point x="589" y="1026" type="curve" smooth="yes"/>
      <point x="589" y="956"/>
      <point x="579" y="823"/>
      <point x="490" y="823" type="curve" smooth="yes"/>
    </contour>
  </outline>
</glyph>
<glyph name="S" format="1">
  <advance width="1022"/>
  <unicode hex="0053"/>
  <outline>
    <contour>
      <point x="524" y="-20" type="curve" smooth="yes"/>
      <point x="757" y="-20"/>
      <point x="922" y="126"/>
      <point x="896" y="447" type="curve" smooth="yes"/>
      <point x="875" y="701"/>
      <point x="728" y="774"/>
      <point x="561" y="865" type="curve" smooth="yes"/>
      <point x="436" y="933"/>
      <point x="405" y="1027"/>
      <point x="405" y="1085" type="curve" smooth="yes"/>
      <point x="405" y="1217"/>
      <point x="503" y="1244"/>
      <point x="577" y="1244" type="curve" smooth="yes"/>
      <point x="635" y="1244"/>
      <point x="707" y="1233"/>
      <point x="784" y="1166" type="curve" smooth="yes"/>
      <point x="799" y="1153"/>
      <point x="813" y="1166"/>
      <point x="831" y="1203" type="curve" smooth="yes"/>
      <point x="874" y="1287" type="line" smooth="yes"/>
      <point x="890" y="1319"/>
      <point x="868" y="1335"/>
      <point x="854" y="1349" type="curve" smooth="yes"/>
      <point x="761" y="1440"/>
      <point x="625" y="1460"/>
      <point x="535" y="1460" type="curve" smooth="yes"/>
      <point x="363" y="1460"/>
      <point x="117" y="1367"/>
      <point x="136" y="1048" type="curve" smooth="yes"/>
      <point x="148" y="839"/>
      <point x="232" y="751"/>
      <point x="408" y="652" type="curve" smooth="yes"/>
      <point x="554" y="570"/>
      <point x="634" y="520"/>
      <point x="634" y="380" type="curve" smooth="yes"/>
      <point x="634" y="248"/>
      <point x="564" y="193"/>
      <point x="477" y="193" type="curve" smooth="yes"/>
      <point x="389" y="193"/>
      <point x="271" y="224"/>
      <point x="177" y="292" type="curve" smooth="yes"/>
      <point x="162" y="303"/>
      <point x="149" y="293"/>
      <point x="140" y="254" type="curve" smooth="yes"/>
      <point x="116" y="153" type="line" smooth="yes"/>
      <point x="108" y="118"/>
      <point x="128" y="101"/>
      <point x="142" y="90" type="curve" smooth="yes"/>
      <point x="259" y="0"/>
      <point x="407" y="-20"/>
    </contour>
  </outline>
</glyph>
<glyph name="T" format="1">
  <advance width="814"/>
  <unicode hex="0054"/>
  <outline>
    <contour>
      <point x="303" y="0" type="curve" smooth="yes"/>
      <point x="512" y="0" type="line" smooth="yes"/>
      <point x="527" y="0"/>
      <point x="539" y="5"/>
      <point x="539" y="48" type="curve" smooth="yes"/>
      <point x="539" y="1164" type="line" smooth="yes"/>
      <point x="539" y="1184"/>
      <point x="544" y="1189"/>
      <point x="551" y="1189" type="curve" smooth="yes"/>
      <point x="718" y="1189" type="line" smooth="yes"/>
      <point x="732" y="1189"/>
      <point x="744" y="1191"/>
      <point x="744" y="1234" type="curve" smooth="yes"/>
      <point x="744" y="1388" type="line" smooth="yes"/>
      <point x="744" y="1431"/>
      <point x="732" y="1438"/>
      <point x="718" y="1438" type="curve" smooth="yes"/>
      <point x="94" y="1438" type="line" smooth="yes"/>
      <point x="78" y="1438"/>
      <point x="67" y="1431"/>
      <point x="67" y="1388" type="curve" smooth="yes"/>
      <point x="67" y="1234" type="line" smooth="yes"/>
      <point x="67" y="1191"/>
      <point x="78" y="1189"/>
      <point x="94" y="1189" type="curve" smooth="yes"/>
      <point x="264" y="1189" type="line" smooth="yes"/>
      <point x="271" y="1189"/>
      <point x="277" y="1184"/>
      <point x="277" y="1164" type="curve" smooth="yes"/>
      <point x="277" y="48" type="line" smooth="yes"/>
      <point x="277" y="5"/>
      <point x="289" y="0"/>
    </contour>
  </outline>
</glyph>
<glyph name="U" format="1">
  <advance width="1033"/>
  <unicode hex="0055"/>
  <outline>
    <contour>
      <point x="516" y="-34" type="curve" smooth="yes"/>
      <point x="689" y="-34"/>
      <point x="913" y="2"/>
      <point x="913" y="651" type="curve" smooth="yes"/>
      <point x="913" y="1391" type="line" smooth="yes"/>
      <point x="913" y="1434"/>
      <point x="902" y="1438"/>
      <point x="887" y="1438" type="curve" smooth="yes"/>
      <point x="677" y="1438" type="line" smooth="yes"/>
      <point x="663" y="1438"/>
      <point x="651" y="1434"/>
      <point x="651" y="1391" type="curve" smooth="yes"/>
      <point x="651" y="580" type="line" smooth="yes"/>
      <point x="651" y="297"/>
      <point x="611" y="196"/>
      <point x="515" y="196" type="curve" smooth="yes"/>
      <point x="419" y="196"/>
      <point x="381" y="297"/>
      <point x="381" y="580" type="curve" smooth="yes"/>
      <point x="381" y="1391" type="line" smooth="yes"/>
      <point x="381" y="1434"/>
      <point x="369" y="1438"/>
      <point x="355" y="1438" type="curve" smooth="yes"/>
      <point x="146" y="1438" type="line" smooth="yes"/>
      <point x="131" y="1438"/>
      <point x="119" y="1434"/>
      <point x="119" y="1391" type="curve" smooth="yes"/>
      <point x="119" y="651" type="line" smooth="yes"/>
      <point x="119" y="2"/>
      <point x="338" y="-34"/>
    </contour>
  </outline>
</glyph>
<glyph name="V" format="1">
  <advance width="935.14610164"/>
  <unicode hex="0056"/>
  <outline>
    <contour>
      <point x="367.51371758" y="0" type="curve" smooth="yes"/>
      <point x="573.51371758" y="0" type="line" smooth="yes"/>
      <point x="590.51371758" y="0"/>
      <point x="605.51371758" y="27"/>
      <point x="612.51371758" y="67" type="curve" smooth="yes"/>
      <point x="854.51371758" y="1371" type="line" smooth="yes"/>
      <point x="859.51371758" y="1401"/>
      <point x="852.51371758" y="1438"/>
      <point x="840.51371758" y="1438" type="curve" smooth="yes"/>
      <point x="661.51371758" y="1438" type="line" smooth="yes"/>
      <point x="644.51371758" y="1438"/>
      <point x="628.51371758" y="1411"/>
      <point x="621.51371758" y="1371" type="curve" smooth="yes"/>
      <point x="481.51371758" y="613" type="line"/>
      <point x="341.51371758" y="1371" type="line" smooth="yes"/>
      <point x="334.51371758" y="1411"/>
      <point x="319.51371758" y="1438"/>
      <point x="302.51371758" y="1438" type="curve" smooth="yes"/>
      <point x="95.5137175798" y="1438" type="line" smooth="yes"/>
      <point x="83.5137175798" y="1438"/>
      <point x="75.5137175798" y="1401"/>
      <point x="80.5137175798" y="1371" type="curve" smooth="yes"/>
      <point x="328.51371758" y="67" type="line" smooth="yes"/>
      <point x="335.51371758" y="27"/>
      <point x="350.51371758" y="0"/>
    </contour>
  </outline>
</glyph>
<glyph name="W" format="1">
  <advance width="1118.40621244"/>
  <unicode hex="0057"/>
  <outline>
    <contour>
      <point x="259.992828162" y="0" type="curve" smooth="yes"/>
      <point x="447.992828162" y="0"/>
      <point x="411.496414081" y="0"/>
      <point x="411.496414081" y="0" type="curve"/>
      <point x="425.496414081" y="3"/>
      <point x="441.496414081" y="31"/>
      <point x="445.496414081" y="70" type="curve" smooth="yes"/>
      <point x="549.496414081" y="830" type="line"/>
      <point x="653.496414081" y="71" type="line" smooth="yes"/>
      <point x="658.496414081" y="29"/>
      <point x="673.496414081" y="0"/>
      <point x="688.496414081" y="0" type="curve" smooth="yes"/>
      <point x="854.992828162" y="0" type="line" smooth="yes"/>
      <point x="870.992828162" y="0"/>
      <point x="884.992828162" y="28"/>
      <point x="890.992828162" y="70" type="curve" smooth="yes"/>
      <point x="1067" y="1368" type="line" smooth="yes"/>
      <point x="1073" y="1401"/>
      <point x="1064" y="1438"/>
      <point x="1052" y="1438" type="curve" smooth="yes"/>
      <point x="896" y="1438" type="line" smooth="yes"/>
      <point x="880" y="1438"/>
      <point x="866" y="1410"/>
      <point x="860" y="1368" type="curve" smooth="yes"/>
      <point x="770.992828162" y="668" type="line"/>
      <point x="675" y="1367" type="line" smooth="yes"/>
      <point x="669" y="1407"/>
      <point x="656" y="1435"/>
      <point x="641" y="1438" type="curve"/>
      <point x="502" y="1438" type="line" smooth="yes"/>
      <point x="486" y="1438"/>
      <point x="471" y="1410"/>
      <point x="465" y="1368" type="curve" smooth="yes"/>
      <point x="366.992828162" y="680" type="line"/>
      <point x="285" y="1366" type="line" smooth="yes"/>
      <point x="280" y="1409"/>
      <point x="266" y="1438"/>
      <point x="250" y="1438" type="curve" smooth="yes"/>
      <point x="67" y="1438" type="line" smooth="yes"/>
      <point x="53" y="1438"/>
      <point x="45" y="1401"/>
      <point x="50" y="1368" type="curve" smooth="yes"/>
      <point x="222.992828162" y="70" type="line" smooth="yes"/>
      <point x="228.992828162" y="28"/>
      <point x="244.992828162" y="0"/>
    </contour>
  </outline>
</glyph>
<glyph name="X" format="1">
  <advance width="853"/>
  <unicode hex="0058"/>
  <outline>
    <contour>
      <point x="52" y="0" type="curve" smooth="yes"/>
      <point x="219" y="0" type="line" smooth="yes"/>
      <point x="235" y="0"/>
      <point x="252" y="20"/>
      <point x="264" y="51" type="curve" smooth="yes"/>
      <point x="386" y="367" type="line"/>
      <point x="492" y="55" type="line" smooth="yes"/>
      <point x="503" y="21"/>
      <point x="520" y="0"/>
      <point x="537" y="0" type="curve" smooth="yes"/>
      <point x="801" y="0" type="line" smooth="yes"/>
      <point x="808" y="0"/>
      <point x="812" y="16"/>
      <point x="812" y="33" type="curve" smooth="yes"/>
      <point x="812" y="40"/>
      <point x="811" y="48"/>
      <point x="809" y="55" type="curve" smooth="yes"/>
      <point x="560" y="818" type="line"/>
      <point x="779" y="1387" type="line"/>
      <point x="782" y="1393"/>
      <point x="783" y="1401"/>
      <point x="783" y="1408" type="curve" smooth="yes"/>
      <point x="783" y="1423"/>
      <point x="779" y="1438"/>
      <point x="773" y="1438" type="curve" smooth="yes"/>
      <point x="605" y="1438" type="line" smooth="yes"/>
      <point x="589" y="1438"/>
      <point x="571" y="1418"/>
      <point x="559" y="1387" type="curve" smooth="yes"/>
      <point x="459" y="1126" type="line"/>
      <point x="375" y="1383" type="line" smooth="yes"/>
      <point x="364" y="1416"/>
      <point x="347" y="1438"/>
      <point x="331" y="1438" type="curve" smooth="yes"/>
      <point x="52" y="1438" type="line" smooth="yes"/>
      <point x="46" y="1438"/>
      <point x="41" y="1422"/>
      <point x="41" y="1406" type="curve" smooth="yes"/>
      <point x="41" y="1398"/>
      <point x="43" y="1390"/>
      <point x="44" y="1383" type="curve"/>
      <point x="284" y="671" type="line"/>
      <point x="46" y="51" type="line"/>
      <point x="43" y="45"/>
      <point x="42" y="37"/>
      <point x="42" y="30" type="curve" smooth="yes"/>
      <point x="42" y="15"/>
      <point x="46" y="0"/>
    </contour>
  </outline>
</glyph>
<glyph name="Y" format="1">
  <advance width="821"/>
  <unicode hex="0059"/>
  <outline>
    <contour>
      <point x="308" y="0" type="curve" smooth="yes"/>
      <point x="517" y="0" type="line" smooth="yes"/>
      <point x="531" y="0"/>
      <point x="544" y="7"/>
      <point x="544" y="50" type="curve" smooth="yes"/>
      <point x="544" y="433" type="line"/>
      <point x="780" y="1376" type="line"/>
      <point x="781" y="1383"/>
      <point x="783" y="1391"/>
      <point x="783" y="1399" type="curve" smooth="yes"/>
      <point x="783" y="1419"/>
      <point x="777" y="1438"/>
      <point x="769" y="1438" type="curve" smooth="yes"/>
      <point x="588" y="1438" type="line" smooth="yes"/>
      <point x="573" y="1438"/>
      <point x="556" y="1413"/>
      <point x="547" y="1375" type="curve" smooth="yes"/>
      <point x="431" y="890" type="line"/>
      <point x="312" y="1376" type="line" smooth="yes"/>
      <point x="302" y="1414"/>
      <point x="286" y="1438"/>
      <point x="269" y="1438" type="curve" smooth="yes"/>
      <point x="51" y="1438" type="line" smooth="yes"/>
      <point x="43" y="1438"/>
      <point x="38" y="1419"/>
      <point x="38" y="1400" type="curve" smooth="yes"/>
      <point x="38" y="1392"/>
      <point x="39" y="1384"/>
      <point x="41" y="1377" type="curve" smooth="yes"/>
      <point x="282" y="430" type="line"/>
      <point x="282" y="50" type="line" smooth="yes"/>
      <point x="282" y="7"/>
      <point x="293" y="0"/>
    </contour>
  </outline>
</glyph>
<glyph name="Z" format="1">
  <advance width="770"/>
  <unicode hex="005A"/>
  <outline>
    <contour>
      <point x="110" y="0" type="curve" smooth="yes"/>
      <point x="692" y="0" type="line" smooth="yes"/>
      <point x="707" y="0"/>
      <point x="719" y="4"/>
      <point x="719" y="47" type="curve" smooth="yes"/>
      <point x="719" y="175" type="line" smooth="yes"/>
      <point x="719" y="218"/>
      <point x="707" y="212"/>
      <point x="692" y="212" type="curve" smooth="yes"/>
      <point x="395" y="212" type="line" smooth="yes"/>
      <point x="392" y="212"/>
      <point x="390" y="219"/>
      <point x="390" y="226" type="curve" smooth="yes"/>
      <point x="390" y="230"/>
      <point x="390" y="233"/>
      <point x="391" y="236" type="curve" smooth="yes"/>
      <point x="684" y="1210" type="line" smooth="yes"/>
      <point x="693" y="1242"/>
      <point x="704" y="1277"/>
      <point x="704" y="1324" type="curve" smooth="yes"/>
      <point x="704" y="1391" type="line" smooth="yes"/>
      <point x="704" y="1434"/>
      <point x="692" y="1438"/>
      <point x="678" y="1438" type="curve" smooth="yes"/>
      <point x="122" y="1438" type="line" smooth="yes"/>
      <point x="108" y="1438"/>
      <point x="96" y="1434"/>
      <point x="96" y="1391" type="curve" smooth="yes"/>
      <point x="96" y="1273" type="line" smooth="yes"/>
      <point x="96" y="1230"/>
      <point x="108" y="1226"/>
      <point x="122" y="1226" type="curve" smooth="yes"/>
      <point x="384" y="1226" type="line" smooth="yes"/>
      <point x="386" y="1226"/>
      <point x="388" y="1219"/>
      <point x="388" y="1212" type="curve" smooth="yes"/>
      <point x="388" y="1208"/>
      <point x="388" y="1205"/>
      <point x="386" y="1202" type="curve"/>
      <point x="105" y="248" type="line" smooth="yes"/>
      <point x="96" y="216"/>
      <point x="84" y="185"/>
      <point x="84" y="138" type="curve" smooth="yes"/>
      <point x="84" y="47" type="line" smooth="yes"/>
      <point x="84" y="4"/>
      <point x="96" y="0"/>
    </contour>
  </outline>
</glyph>
<glyph name="bracketleft" format="1">
  <advance width="664"/>
  <unicode hex="005B"/>
  <outline>
    <contour>
      <point x="151" y="-162" type="curve" smooth="yes"/>
      <point x="525" y="-162" type="line" smooth="yes"/>
      <point x="541" y="-162"/>
      <point x="553" y="-148"/>
      <point x="553" y="-105" type="curve" smooth="yes"/>
      <point x="553" y="35" type="line" smooth="yes"/>
      <point x="553" y="78"/>
      <point x="541" y="94"/>
      <point x="525" y="94" type="curve" smooth="yes"/>
      <point x="399" y="94" type="line" smooth="yes"/>
      <point x="392" y="94"/>
      <point x="386" y="109"/>
      <point x="386" y="129" type="curve" smooth="yes"/>
      <point x="386" y="1145" type="line" smooth="yes"/>
      <point x="386" y="1165"/>
      <point x="392" y="1182"/>
      <point x="399" y="1182" type="curve" smooth="yes"/>
      <point x="526" y="1182" type="line" smooth="yes"/>
      <point x="541" y="1182"/>
      <point x="553" y="1186"/>
      <point x="553" y="1229" type="curve" smooth="yes"/>
      <point x="553" y="1391" type="line" smooth="yes"/>
      <point x="553" y="1434"/>
      <point x="541" y="1438"/>
      <point x="525" y="1438" type="curve" smooth="yes"/>
      <point x="151" y="1438" type="line" smooth="yes"/>
      <point x="135" y="1438"/>
      <point x="123" y="1434"/>
      <point x="124" y="1391" type="curve" smooth="yes"/>
      <point x="124" y="-105" type="line"/>
      <point x="123" y="-148"/>
      <point x="136" y="-162"/>
    </contour>
  </outline>
</glyph>
<glyph name="backslash" format="1">
  <advance width="622"/>
  <unicode hex="005C"/>
  <outline>
    <contour>
      <point x="338" y="-207" type="curve" smooth="yes"/>
      <point x="522" y="-205" type="line" smooth="yes"/>
      <point x="527" y="-205"/>
      <point x="531" y="-187"/>
      <point x="529" y="-170" type="curve" smooth="yes"/>
      <point x="294" y="1612" type="line" smooth="yes"/>
      <point x="292" y="1633"/>
      <point x="285" y="1647"/>
      <point x="278" y="1647" type="curve" smooth="yes"/>
      <point x="95" y="1647" type="line" smooth="yes"/>
      <point x="89" y="1647"/>
      <point x="85" y="1629"/>
      <point x="87" y="1612" type="curve" smooth="yes"/>
      <point x="322" y="-172" type="line" smooth="yes"/>
      <point x="325" y="-193"/>
      <point x="331" y="-207"/>
    </contour>
  </outline>
</glyph>
<glyph name="a" format="1">
  <advance width="821"/>
  <unicode hex="0061"/>
  <outline>
    <contour>
      <point x="316" y="-31" type="curve" smooth="yes"/>
      <point x="441" y="-31"/>
      <point x="523" y="59"/>
      <point x="562" y="210" type="curve" smooth="yes"/>
      <point x="563" y="214"/>
      <point x="565" y="215"/>
      <point x="568" y="215" type="curve" smooth="yes"/>
      <point x="570" y="215"/>
      <point x="573" y="212"/>
      <point x="574" y="207" type="curve"/>
      <point x="577" y="183"/>
      <point x="593" y="89"/>
      <point x="602" y="46" type="curve" smooth="yes"/>
      <point x="609" y="11"/>
      <point x="624" y="0"/>
      <point x="637" y="0" type="curve" smooth="yes"/>
      <point x="683" y="0" type="line" smooth="yes"/>
      <point x="696" y="0"/>
      <point x="705" y="18"/>
      <point x="705" y="53" type="curve" smooth="yes"/>
      <point x="705" y="598" type="line" smooth="yes"/>
      <point x="705" y="947"/>
      <point x="585" y="1043"/>
      <point x="425" y="1043" type="curve" smooth="yes"/>
      <point x="259" y="1043"/>
      <point x="172" y="968"/>
      <point x="140" y="836" type="curve" smooth="yes"/>
      <point x="137" y="823"/>
      <point x="137" y="816"/>
      <point x="137" y="802" type="curve" smooth="yes"/>
      <point x="137" y="785"/>
      <point x="141" y="766"/>
      <point x="147" y="765" type="curve"/>
      <point x="284" y="728" type="line" smooth="yes"/>
      <point x="288" y="727"/>
      <point x="290" y="726"/>
      <point x="292" y="726" type="curve" smooth="yes"/>
      <point x="299" y="726"/>
      <point x="306" y="730"/>
      <point x="311" y="750" type="curve" smooth="yes"/>
      <point x="329" y="824"/>
      <point x="359" y="868"/>
      <point x="407" y="868" type="curve" smooth="yes"/>
      <point x="472" y="868"/>
      <point x="497" y="807"/>
      <point x="497" y="688" type="curve" smooth="yes"/>
      <point x="497" y="682"/>
      <point x="497" y="646"/>
      <point x="497" y="639" type="curve" smooth="yes"/>
      <point x="497" y="594"/>
      <point x="110" y="646"/>
      <point x="110" y="238" type="curve" smooth="yes"/>
      <point x="110" y="62"/>
      <point x="194" y="-31"/>
    </contour>
    <contour>
      <point x="358" y="144" type="curve" smooth="yes"/>
      <point x="314" y="144"/>
      <point x="301" y="189"/>
      <point x="301" y="250" type="curve" smooth="yes"/>
      <point x="301" y="381"/>
      <point x="384" y="441"/>
      <point x="487" y="477" type="curve"/>
      <point x="489" y="478"/>
      <point x="490" y="478"/>
      <point x="491" y="478" type="curve" smooth="yes"/>
      <point x="501" y="478"/>
      <point x="502" y="457"/>
      <point x="502" y="443" type="curve" smooth="yes"/>
      <point x="502" y="328"/>
      <point x="431" y="144"/>
    </contour>
  </outline>
</glyph>
<glyph name="b" format="1">
  <advance width="808"/>
  <unicode hex="0062"/>
  <outline>
    <contour>
      <point x="469" y="-10" type="curve" smooth="yes"/>
      <point x="599" y="-10"/>
      <point x="727" y="133"/>
      <point x="727" y="498" type="curve" smooth="yes"/>
      <point x="727" y="885"/>
      <point x="601" y="1017"/>
      <point x="484" y="1017" type="curve" smooth="yes"/>
      <point x="423" y="1017"/>
      <point x="369" y="986"/>
      <point x="332" y="904" type="curve" smooth="yes"/>
      <point x="330" y="900"/>
      <point x="326" y="896"/>
      <point x="322" y="896" type="curve" smooth="yes"/>
      <point x="319" y="896"/>
      <point x="315" y="901"/>
      <point x="315" y="915" type="curve" smooth="yes"/>
      <point x="315" y="1346" type="line" smooth="yes"/>
      <point x="315" y="1389"/>
      <point x="303" y="1423"/>
      <point x="289" y="1423" type="curve" smooth="yes"/>
      <point x="135" y="1423" type="line" smooth="yes"/>
      <point x="120" y="1423"/>
      <point x="108" y="1389"/>
      <point x="108" y="1346" type="curve" smooth="yes"/>
      <point x="108" y="67" type="line" smooth="yes"/>
      <point x="108" y="24"/>
      <point x="115" y="0"/>
      <point x="129" y="0" type="curve" smooth="yes"/>
      <point x="170" y="0" type="line" smooth="yes"/>
      <point x="184" y="0"/>
      <point x="191" y="25"/>
      <point x="199" y="63" type="curve" smooth="yes"/>
      <point x="217" y="137"/>
      <point x="226" y="155"/>
      <point x="230" y="178" type="curve" smooth="yes"/>
      <point x="231" y="183"/>
      <point x="235" y="185"/>
      <point x="238" y="185" type="curve" smooth="yes"/>
      <point x="240" y="185"/>
      <point x="242" y="184"/>
      <point x="243" y="181" type="curve" smooth="yes"/>
      <point x="290" y="19"/>
      <point x="381" y="-10"/>
    </contour>
    <contour>
      <point x="423" y="165" type="curve" smooth="yes"/>
      <point x="356" y="165"/>
      <point x="315" y="315"/>
      <point x="315" y="514" type="curve" smooth="yes"/>
      <point x="315" y="709"/>
      <point x="349" y="842"/>
      <point x="416" y="842" type="curve" smooth="yes"/>
      <point x="480" y="842"/>
      <point x="511" y="700"/>
      <point x="511" y="514" type="curve" smooth="yes"/>
      <point x="511" y="287"/>
      <point x="487" y="165"/>
    </contour>
  </outline>
</glyph>
<glyph name="c" format="1">
  <advance width="707"/>
  <unicode hex="0063"/>
  <outline>
    <contour>
      <point x="453" y="-42" type="curve" smooth="yes"/>
      <point x="499" y="-42"/>
      <point x="544" y="-33"/>
      <point x="573" y="-26" type="curve" smooth="yes"/>
      <point x="582" y="-24"/>
      <point x="588" y="-14"/>
      <point x="588" y="-1" type="curve" smooth="yes"/>
      <point x="588" y="131" type="line" smooth="yes"/>
      <point x="588" y="144"/>
      <point x="582" y="156"/>
      <point x="573" y="158" type="curve"/>
      <point x="552" y="152"/>
      <point x="517" y="144"/>
      <point x="483" y="144" type="curve" smooth="yes"/>
      <point x="394" y="144"/>
      <point x="333" y="177"/>
      <point x="333" y="510" type="curve" smooth="yes"/>
      <point x="333" y="809"/>
      <point x="403" y="868"/>
      <point x="485" y="868" type="curve" smooth="yes"/>
      <point x="522" y="868"/>
      <point x="551" y="858"/>
      <point x="573" y="850" type="curve" smooth="yes"/>
      <point x="582" y="847"/>
      <point x="589" y="855"/>
      <point x="588" y="869" type="curve"/>
      <point x="588" y="1011" type="line" smooth="yes"/>
      <point x="588" y="1019"/>
      <point x="582" y="1026"/>
      <point x="573" y="1028" type="curve"/>
      <point x="538" y="1038"/>
      <point x="481" y="1053"/>
      <point x="426" y="1053" type="curve" smooth="yes"/>
      <point x="262" y="1053"/>
      <point x="108" y="920"/>
      <point x="108" y="510" type="curve" smooth="yes"/>
      <point x="108" y="48"/>
      <point x="279" y="-42"/>
    </contour>
  </outline>
</glyph>
<glyph name="d" format="1">
  <advance width="886"/>
  <unicode hex="0064"/>
  <outline>
    <contour>
      <point x="381" y="-31" type="curve" smooth="yes"/>
      <point x="470" y="-31"/>
      <point x="569" y="11"/>
      <point x="606" y="200" type="curve"/>
      <point x="609" y="207"/>
      <point x="611" y="210"/>
      <point x="614" y="210" type="curve" smooth="yes"/>
      <point x="617" y="210"/>
      <point x="620" y="206"/>
      <point x="621" y="197" type="curve"/>
      <point x="652" y="64" type="line" smooth="yes"/>
      <point x="660" y="25"/>
      <point x="676" y="0"/>
      <point x="693" y="0" type="curve" smooth="yes"/>
      <point x="736" y="0" type="line" smooth="yes"/>
      <point x="751" y="0"/>
      <point x="763" y="24"/>
      <point x="763" y="67" type="curve" smooth="yes"/>
      <point x="763" y="1366" type="line" smooth="yes"/>
      <point x="763" y="1409"/>
      <point x="751" y="1423"/>
      <point x="736" y="1423" type="curve" smooth="yes"/>
      <point x="563" y="1423" type="line" smooth="yes"/>
      <point x="548" y="1423"/>
      <point x="537" y="1409"/>
      <point x="537" y="1366" type="curve" smooth="yes"/>
      <point x="537" y="937" type="line" smooth="yes"/>
      <point x="537" y="927"/>
      <point x="534" y="923"/>
      <point x="531" y="923" type="curve" smooth="yes"/>
      <point x="528" y="923"/>
      <point x="524" y="927"/>
      <point x="521" y="932" type="curve"/>
      <point x="486" y="1013"/>
      <point x="438" y="1043"/>
      <point x="368" y="1043" type="curve" smooth="yes"/>
      <point x="250" y="1043"/>
      <point x="107" y="915"/>
      <point x="107" y="498" type="curve" smooth="yes"/>
      <point x="107" y="83"/>
      <point x="253" y="-31"/>
    </contour>
    <contour>
      <point x="437" y="144" type="curve" smooth="yes"/>
      <point x="372" y="144"/>
      <point x="333" y="210"/>
      <point x="333" y="514" type="curve" smooth="yes"/>
      <point x="333" y="779"/>
      <point x="372" y="868"/>
      <point x="436" y="868" type="curve" smooth="yes"/>
      <point x="503" y="868"/>
      <point x="536" y="762"/>
      <point x="536" y="514" type="curve" smooth="yes"/>
      <point x="536" y="236"/>
      <point x="503" y="144"/>
    </contour>
  </outline>
</glyph>
<glyph name="e" format="1">
  <advance width="797"/>
  <unicode hex="0065"/>
  <outline>
    <contour>
      <point x="430" y="-31" type="curve" smooth="yes"/>
      <point x="603" y="-31"/>
      <point x="678" y="83"/>
      <point x="678" y="223" type="curve" smooth="yes"/>
      <point x="678" y="254"/>
      <point x="674" y="282"/>
      <point x="672" y="292" type="curve" smooth="yes"/>
      <point x="670" y="302"/>
      <point x="664" y="309"/>
      <point x="648" y="309" type="curve" smooth="yes"/>
      <point x="619" y="309"/>
      <point x="572" y="309"/>
      <point x="545" y="309" type="curve" smooth="yes"/>
      <point x="532" y="309"/>
      <point x="524" y="303"/>
      <point x="522" y="285" type="curve" smooth="yes"/>
      <point x="516" y="232"/>
      <point x="507" y="144"/>
      <point x="435" y="144" type="curve" smooth="yes"/>
      <point x="379" y="144"/>
      <point x="325" y="199"/>
      <point x="325" y="421" type="curve" smooth="yes"/>
      <point x="325" y="437"/>
      <point x="328" y="455"/>
      <point x="334" y="455" type="curve" smooth="yes"/>
      <point x="672" y="455" type="line" smooth="yes"/>
      <point x="678" y="455"/>
      <point x="683" y="466"/>
      <point x="684" y="484" type="curve" smooth="yes"/>
      <point x="685" y="496"/>
      <point x="685" y="506"/>
      <point x="685" y="520" type="curve" smooth="yes"/>
      <point x="685" y="936"/>
      <point x="537" y="1043"/>
      <point x="416" y="1043" type="curve" smooth="yes"/>
      <point x="281" y="1043"/>
      <point x="108" y="961"/>
      <point x="108" y="504" type="curve" smooth="yes"/>
      <point x="108" y="37"/>
      <point x="294" y="-31"/>
    </contour>
    <contour>
      <point x="494" y="615" type="curve" smooth="yes"/>
      <point x="330" y="615" type="line" smooth="yes"/>
      <point x="325" y="615"/>
      <point x="325" y="643"/>
      <point x="325" y="657" type="curve" smooth="yes"/>
      <point x="327" y="788"/>
      <point x="366" y="868"/>
      <point x="414" y="868" type="curve" smooth="yes"/>
      <point x="462" y="868"/>
      <point x="495" y="784"/>
      <point x="498" y="652" type="curve" smooth="yes"/>
      <point x="498" y="639"/>
      <point x="498" y="615"/>
    </contour>
  </outline>
</glyph>
<glyph name="f" format="1">
  <advance width="692"/>
  <unicode hex="0066"/>
  <outline>
    <contour>
      <point x="215" y="0" type="curve" smooth="yes"/>
      <point x="380" y="0" type="line" smooth="yes"/>
      <point x="394" y="0"/>
      <point x="406" y="9"/>
      <point x="406" y="52" type="curve" smooth="yes"/>
      <point x="406" y="777" type="line" smooth="yes"/>
      <point x="406" y="797"/>
      <point x="408" y="814"/>
      <point x="414" y="814" type="curve" smooth="yes"/>
      <point x="549" y="814" type="line" smooth="yes"/>
      <point x="564" y="814"/>
      <point x="572" y="823"/>
      <point x="572" y="866" type="curve" smooth="yes"/>
      <point x="572" y="951" type="line" smooth="yes"/>
      <point x="572" y="994"/>
      <point x="564" y="1006"/>
      <point x="549" y="1006" type="curve" smooth="yes"/>
      <point x="408" y="1006" type="line"/>
      <point x="408" y="1006"/>
      <point x="406" y="1009"/>
      <point x="406" y="1012" type="curve" smooth="yes"/>
      <point x="406" y="1106" type="line" smooth="yes"/>
      <point x="406" y="1233"/>
      <point x="442" y="1279"/>
      <point x="495" y="1279" type="curve" smooth="yes"/>
      <point x="517" y="1279"/>
      <point x="564" y="1279"/>
      <point x="566" y="1279" type="curve" smooth="yes"/>
      <point x="578" y="1279"/>
      <point x="579" y="1293"/>
      <point x="579" y="1330" type="curve" smooth="yes"/>
      <point x="579" y="1423" type="line" smooth="yes"/>
      <point x="579" y="1451"/>
      <point x="565" y="1462"/>
      <point x="553" y="1465" type="curve" smooth="yes"/>
      <point x="532" y="1470"/>
      <point x="474" y="1475"/>
      <point x="428" y="1475" type="curve" smooth="yes"/>
      <point x="304" y="1475"/>
      <point x="189" y="1414"/>
      <point x="189" y="1044" type="curve" smooth="yes"/>
      <point x="189" y="1022"/>
      <point x="189" y="1006"/>
      <point x="182" y="1006" type="curve" smooth="yes"/>
      <point x="130" y="1006" type="line" smooth="yes"/>
      <point x="115" y="1006"/>
      <point x="107" y="988"/>
      <point x="107" y="945" type="curve" smooth="yes"/>
      <point x="107" y="866" type="line" smooth="yes"/>
      <point x="107" y="823"/>
      <point x="115" y="814"/>
      <point x="130" y="814" type="curve" smooth="yes"/>
      <point x="182" y="814" type="line" smooth="yes"/>
      <point x="189" y="814"/>
      <point x="189" y="797"/>
      <point x="189" y="777" type="curve" smooth="yes"/>
      <point x="189" y="52" type="line" smooth="yes"/>
      <point x="189" y="9"/>
      <point x="201" y="0"/>
    </contour>
  </outline>
</glyph>
<glyph name="g" format="1">
  <advance width="783"/>
  <unicode hex="0067"/>
  <outline>
    <contour>
      <point x="372" y="-319" type="curve" smooth="yes"/>
      <point x="502" y="-319"/>
      <point x="777" y="-281"/>
      <point x="777" y="-25" type="curve" smooth="yes"/>
      <point x="777" y="145"/>
      <point x="676" y="199"/>
      <point x="451" y="199" type="curve" smooth="yes"/>
      <point x="323" y="199" type="line" smooth="yes"/>
      <point x="257" y="199"/>
      <point x="217" y="220"/>
      <point x="217" y="284" type="curve"/>
      <point x="217" y="330"/>
      <point x="242" y="381"/>
      <point x="249" y="381" type="curve" smooth="yes"/>
      <point x="280" y="362"/>
      <point x="371" y="343"/>
      <point x="414" y="343" type="curve" smooth="yes"/>
      <point x="609" y="343"/>
      <point x="732" y="461"/>
      <point x="732" y="674" type="curve" smooth="yes"/>
      <point x="732" y="858"/>
      <point x="635" y="920"/>
      <point x="586" y="953" type="curve" smooth="yes"/>
      <point x="577" y="959"/>
      <point x="570" y="963"/>
      <point x="567" y="969" type="curve" smooth="yes"/>
      <point x="563" y="975"/>
      <point x="563" y="984"/>
      <point x="566" y="998" type="curve" smooth="yes"/>
      <point x="632" y="1287" type="line" smooth="yes"/>
      <point x="634" y="1295"/>
      <point x="629" y="1332"/>
      <point x="621" y="1332" type="curve" smooth="yes"/>
      <point x="514" y="1332" type="line" smooth="yes"/>
      <point x="499" y="1332"/>
      <point x="483" y="1330"/>
      <point x="483" y="1287" type="curve" smooth="yes"/>
      <point x="483" y="1019" type="line" smooth="yes"/>
      <point x="483" y="1004"/>
      <point x="476" y="1004"/>
      <point x="461" y="1007" type="curve" smooth="yes"/>
      <point x="445" y="1010"/>
      <point x="421" y="1017"/>
      <point x="386" y="1017" type="curve" smooth="yes"/>
      <point x="174" y="1017"/>
      <point x="60" y="875"/>
      <point x="60" y="672" type="curve" smooth="yes"/>
      <point x="60" y="559"/>
      <point x="122" y="471"/>
      <point x="148" y="450" type="curve"/>
      <point x="153" y="444"/>
      <point x="156" y="437"/>
      <point x="156" y="430" type="curve" smooth="yes"/>
      <point x="156" y="424"/>
      <point x="153" y="417"/>
      <point x="147" y="409" type="curve" smooth="yes"/>
      <point x="110" y="363"/>
      <point x="65" y="312"/>
      <point x="65" y="208" type="curve" smooth="yes"/>
      <point x="65" y="110"/>
      <point x="122" y="117"/>
      <point x="185" y="95" type="curve"/>
      <point x="189" y="92"/>
      <point x="189" y="85"/>
      <point x="189" y="78" type="curve" smooth="yes"/>
      <point x="189" y="73"/>
      <point x="189" y="67"/>
      <point x="186" y="63" type="curve" smooth="yes"/>
      <point x="125" y="-20"/>
      <point x="93" y="-78"/>
      <point x="93" y="-152" type="curve" smooth="yes"/>
      <point x="93" y="-264"/>
      <point x="206" y="-319"/>
    </contour>
    <contour>
      <point x="390" y="-189" type="curve" smooth="yes"/>
      <point x="286" y="-189"/>
      <point x="278" y="-127"/>
      <point x="283" y="-82" type="curve" smooth="yes"/>
      <point x="291" y="-16"/>
      <point x="343" y="72"/>
      <point x="349" y="72" type="curve" smooth="yes"/>
      <point x="479" y="72" type="line" smooth="yes"/>
      <point x="543" y="72"/>
      <point x="610" y="49"/>
      <point x="610" y="-44" type="curve" smooth="yes"/>
      <point x="610" y="-132"/>
      <point x="510" y="-189"/>
    </contour>
    <contour>
      <point x="407" y="481" type="curve" smooth="yes"/>
      <point x="356" y="481"/>
      <point x="305" y="536"/>
      <point x="305" y="682" type="curve" smooth="yes"/>
      <point x="305" y="829"/>
      <point x="355" y="881"/>
      <point x="407" y="881" type="curve" smooth="yes"/>
      <point x="457" y="881"/>
      <point x="507" y="816"/>
      <point x="507" y="670" type="curve" smooth="yes"/>
      <point x="507" y="543"/>
      <point x="460" y="481"/>
    </contour>
  </outline>
</glyph>
<glyph name="h" format="1">
  <advance width="864"/>
  <unicode hex="0068"/>
  <outline>
    <contour>
      <point x="136" y="0" type="curve" smooth="yes"/>
      <point x="315" y="0" type="line" smooth="yes"/>
      <point x="329" y="0"/>
      <point x="341" y="4"/>
      <point x="341" y="47" type="curve" smooth="yes"/>
      <point x="341" y="574" type="line" smooth="yes"/>
      <point x="341" y="757"/>
      <point x="383" y="841"/>
      <point x="450" y="841" type="curve" smooth="yes"/>
      <point x="514" y="841"/>
      <point x="538" y="765"/>
      <point x="538" y="574" type="curve" smooth="yes"/>
      <point x="538" y="47" type="line" smooth="yes"/>
      <point x="538" y="4"/>
      <point x="549" y="0"/>
      <point x="564" y="0" type="curve" smooth="yes"/>
      <point x="744" y="0" type="line" smooth="yes"/>
      <point x="759" y="0"/>
      <point x="770" y="4"/>
      <point x="770" y="47" type="curve" smooth="yes"/>
      <point x="770" y="561" type="line" smooth="yes"/>
      <point x="770" y="913"/>
      <point x="666" y="1017"/>
      <point x="544" y="1017" type="curve" smooth="yes"/>
      <point x="485" y="1017"/>
      <point x="400" y="985"/>
      <point x="355" y="896" type="curve" smooth="yes"/>
      <point x="353" y="892"/>
      <point x="350" y="889"/>
      <point x="348" y="889" type="curve" smooth="yes"/>
      <point x="344" y="889"/>
      <point x="341" y="894"/>
      <point x="341" y="909" type="curve" smooth="yes"/>
      <point x="341" y="1385" type="line" smooth="yes"/>
      <point x="341" y="1428"/>
      <point x="329" y="1436"/>
      <point x="315" y="1436" type="curve" smooth="yes"/>
      <point x="136" y="1436" type="line" smooth="yes"/>
      <point x="121" y="1436"/>
      <point x="109" y="1428"/>
      <point x="109" y="1385" type="curve" smooth="yes"/>
      <point x="109" y="47" type="line" smooth="yes"/>
      <point x="109" y="4"/>
      <point x="121" y="0"/>
    </contour>
  </outline>
</glyph>
<glyph name="i" format="1">
  <advance width="413"/>
  <unicode hex="0069"/>
  <outline>
    <contour>
      <point x="129" y="0" type="curve" smooth="yes"/>
      <point x="284" y="0" type="line" smooth="yes"/>
      <point x="298" y="0"/>
      <point x="310" y="34"/>
      <point x="310" y="77" type="curve" smooth="yes"/>
      <point x="310" y="929" type="line" smooth="yes"/>
      <point x="310" y="972"/>
      <point x="298" y="1006"/>
      <point x="284" y="1006" type="curve" smooth="yes"/>
      <point x="129" y="1006" type="line" smooth="yes"/>
      <point x="114" y="1006"/>
      <point x="103" y="972"/>
      <point x="103" y="929" type="curve" smooth="yes"/>
      <point x="103" y="77" type="line" smooth="yes"/>
      <point x="103" y="34"/>
      <point x="114" y="0"/>
    </contour>
    <contour>
      <point x="129" y="1152" type="curve" smooth="yes"/>
      <point x="284" y="1152" type="line" smooth="yes"/>
      <point x="298" y="1152"/>
      <point x="310" y="1186"/>
      <point x="310" y="1229" type="curve" smooth="yes"/>
      <point x="310" y="1458" type="line" smooth="yes"/>
      <point x="310" y="1501"/>
      <point x="298" y="1535"/>
      <point x="284" y="1535" type="curve" smooth="yes"/>
      <point x="129" y="1535" type="line" smooth="yes"/>
      <point x="114" y="1535"/>
      <point x="103" y="1501"/>
      <point x="103" y="1458" type="curve" smooth="yes"/>
      <point x="103" y="1229" type="line" smooth="yes"/>
      <point x="103" y="1186"/>
      <point x="114" y="1152"/>
    </contour>
  </outline>
</glyph>
<glyph name="j" format="1">
  <advance width="548"/>
  <unicode hex="006A"/>
  <outline>
    <contour>
      <point x="228" y="-451" type="curve" smooth="yes"/>
      <point x="328" y="-425"/>
      <point x="425" y="-313"/>
      <point x="425" y="12" type="curve" smooth="yes"/>
      <point x="425" y="929" type="line" smooth="yes"/>
      <point x="425" y="972"/>
      <point x="414" y="1006"/>
      <point x="399" y="1006" type="curve" smooth="yes"/>
      <point x="244" y="1006" type="line" smooth="yes"/>
      <point x="229" y="1006"/>
      <point x="218" y="972"/>
      <point x="218" y="929" type="curve" smooth="yes"/>
      <point x="218" y="0" type="line" smooth="yes"/>
      <point x="218" y="-112"/>
      <point x="177" y="-135"/>
      <point x="139" y="-135" type="curve" smooth="yes"/>
      <point x="125" y="-135"/>
      <point x="111" y="-132"/>
      <point x="99" y="-128" type="curve" smooth="yes"/>
      <point x="85" y="-123"/>
      <point x="73" y="-154"/>
      <point x="73" y="-195" type="curve" smooth="yes"/>
      <point x="73" y="-246"/>
      <point x="73" y="-298"/>
      <point x="73" y="-349" type="curve" smooth="yes"/>
      <point x="73" y="-393"/>
      <point x="85" y="-431"/>
      <point x="100" y="-437" type="curve" smooth="yes"/>
      <point x="137" y="-451"/>
      <point x="183" y="-463"/>
    </contour>
    <contour>
      <point x="244" y="1152" type="curve" smooth="yes"/>
      <point x="399" y="1152" type="line" smooth="yes"/>
      <point x="413" y="1152"/>
      <point x="425" y="1166"/>
      <point x="425" y="1209" type="curve" smooth="yes"/>
      <point x="425" y="1381" type="line" smooth="yes"/>
      <point x="425" y="1424"/>
      <point x="413" y="1438"/>
      <point x="399" y="1438" type="curve" smooth="yes"/>
      <point x="244" y="1438" type="line" smooth="yes"/>
      <point x="229" y="1438"/>
      <point x="217" y="1424"/>
      <point x="217" y="1381" type="curve" smooth="yes"/>
      <point x="217" y="1209" type="line" smooth="yes"/>
      <point x="217" y="1166"/>
      <point x="229" y="1152"/>
    </contour>
  </outline>
</glyph>
<glyph name="k" format="1">
  <advance width="840"/>
  <unicode hex="006B"/>
  <outline>
    <contour>
      <point x="150" y="0" type="curve" smooth="yes"/>
      <point x="305" y="0" type="line" smooth="yes"/>
      <point x="319" y="0"/>
      <point x="331" y="14"/>
      <point x="331" y="57" type="curve" smooth="yes"/>
      <point x="331" y="277" type="line" smooth="yes"/>
      <point x="331" y="300"/>
      <point x="334" y="323"/>
      <point x="340" y="338" type="curve" smooth="yes"/>
      <point x="368" y="416" type="line"/>
      <point x="369" y="422"/>
      <point x="373" y="425"/>
      <point x="376" y="425" type="curve" smooth="yes"/>
      <point x="380" y="425"/>
      <point x="382" y="421"/>
      <point x="385" y="413" type="curve"/>
      <point x="489" y="37" type="line" smooth="yes"/>
      <point x="500" y="2"/>
      <point x="508" y="0"/>
      <point x="523" y="0" type="curve" smooth="yes"/>
      <point x="718" y="0" type="line" smooth="yes"/>
      <point x="724" y="0"/>
      <point x="729" y="16"/>
      <point x="729" y="32" type="curve" smooth="yes"/>
      <point x="729" y="40"/>
      <point x="727" y="48"/>
      <point x="725" y="54" type="curve" smooth="yes"/>
      <point x="549" y="541" type="line"/>
      <point x="546" y="547"/>
      <point x="546" y="555"/>
      <point x="546" y="563" type="curve" smooth="yes"/>
      <point x="546" y="573"/>
      <point x="547" y="583"/>
      <point x="550" y="589" type="curve"/>
      <point x="708" y="961" type="line"/>
      <point x="711" y="966"/>
      <point x="712" y="973"/>
      <point x="712" y="981" type="curve" smooth="yes"/>
      <point x="712" y="994"/>
      <point x="709" y="1006"/>
      <point x="704" y="1006" type="curve" smooth="yes"/>
      <point x="509" y="1006" type="line" smooth="yes"/>
      <point x="493" y="1006"/>
      <point x="476" y="988"/>
      <point x="465" y="960" type="curve" smooth="yes"/>
      <point x="341" y="660" type="line"/>
      <point x="340" y="658"/>
      <point x="338" y="656"/>
      <point x="338" y="656" type="curve"/>
      <point x="334" y="656"/>
      <point x="331" y="664"/>
      <point x="331" y="675" type="curve" smooth="yes"/>
      <point x="331" y="1418" type="line" smooth="yes"/>
      <point x="331" y="1461"/>
      <point x="319" y="1475"/>
      <point x="305" y="1475" type="curve" smooth="yes"/>
      <point x="150" y="1475" type="line" smooth="yes"/>
      <point x="135" y="1475"/>
      <point x="123" y="1461"/>
      <point x="123" y="1418" type="curve" smooth="yes"/>
      <point x="123" y="57" type="line" smooth="yes"/>
      <point x="123" y="14"/>
      <point x="135" y="0"/>
    </contour>
  </outline>
</glyph>
<glyph name="l" format="1">
  <advance width="408"/>
  <unicode hex="006C"/>
  <outline>
    <contour>
      <point x="137" y="0" type="curve" smooth="yes"/>
      <point x="292" y="0" type="line" smooth="yes"/>
      <point x="306" y="0"/>
      <point x="318" y="4"/>
      <point x="318" y="47" type="curve" smooth="yes"/>
      <point x="318" y="1418" type="line" smooth="yes"/>
      <point x="318" y="1461"/>
      <point x="306" y="1475"/>
      <point x="292" y="1475" type="curve" smooth="yes"/>
      <point x="137" y="1475" type="line" smooth="yes"/>
      <point x="122" y="1475"/>
      <point x="110" y="1461"/>
      <point x="110" y="1418" type="curve" smooth="yes"/>
      <point x="110" y="47" type="line" smooth="yes"/>
      <point x="110" y="4"/>
      <point x="122" y="0"/>
    </contour>
  </outline>
</glyph>
<glyph name="m" format="1">
  <advance width="1183"/>
  <unicode hex="006D"/>
  <outline>
    <contour>
      <point x="145" y="0" type="curve" smooth="yes"/>
      <point x="307" y="0" type="line" smooth="yes"/>
      <point x="321" y="0"/>
      <point x="333" y="34"/>
      <point x="333" y="77" type="curve" smooth="yes"/>
      <point x="333" y="578" type="line"/>
      <point x="333" y="764"/>
      <point x="342" y="868"/>
      <point x="413" y="868" type="curve" smooth="yes"/>
      <point x="462" y="868"/>
      <point x="488" y="821"/>
      <point x="488" y="603" type="curve" smooth="yes"/>
      <point x="488" y="77" type="line" smooth="yes"/>
      <point x="488" y="34"/>
      <point x="499" y="0"/>
      <point x="515" y="0" type="curve" smooth="yes"/>
      <point x="674" y="0" type="line" smooth="yes"/>
      <point x="689" y="0"/>
      <point x="700" y="34"/>
      <point x="700" y="77" type="curve" smooth="yes"/>
      <point x="700" y="595" type="line"/>
      <point x="700" y="861"/>
      <point x="745" y="868"/>
      <point x="780" y="868" type="curve" smooth="yes"/>
      <point x="835" y="868"/>
      <point x="855" y="825"/>
      <point x="855" y="623" type="curve" smooth="yes"/>
      <point x="855" y="77" type="line" smooth="yes"/>
      <point x="855" y="34"/>
      <point x="866" y="0"/>
      <point x="881" y="0" type="curve" smooth="yes"/>
      <point x="1041" y="0" type="line" smooth="yes"/>
      <point x="1056" y="0"/>
      <point x="1067" y="34"/>
      <point x="1067" y="77" type="curve" smooth="yes"/>
      <point x="1067" y="625" type="line" smooth="yes"/>
      <point x="1067" y="988"/>
      <point x="963" y="1043"/>
      <point x="843" y="1043" type="curve" smooth="yes"/>
      <point x="780" y="1043"/>
      <point x="692" y="989"/>
      <point x="659" y="873" type="curve" smooth="yes"/>
      <point x="657" y="866"/>
      <point x="654" y="863"/>
      <point x="650" y="863" type="curve" smooth="yes"/>
      <point x="647" y="863"/>
      <point x="643" y="866"/>
      <point x="641" y="873" type="curve" smooth="yes"/>
      <point x="605" y="990"/>
      <point x="532" y="1043"/>
      <point x="464" y="1043" type="curve" smooth="yes"/>
      <point x="388" y="1043"/>
      <point x="315" y="1008"/>
      <point x="275" y="848" type="curve" smooth="yes"/>
      <point x="273" y="840"/>
      <point x="271" y="837"/>
      <point x="268" y="837" type="curve" smooth="yes"/>
      <point x="265" y="837"/>
      <point x="262" y="841"/>
      <point x="260" y="849" type="curve" smooth="yes"/>
      <point x="236" y="942" type="line" smooth="yes"/>
      <point x="227" y="981"/>
      <point x="210" y="1006"/>
      <point x="195" y="1006" type="curve" smooth="yes"/>
      <point x="145" y="1006" type="line" smooth="yes"/>
      <point x="131" y="1006"/>
      <point x="119" y="972"/>
      <point x="119" y="929" type="curve" smooth="yes"/>
      <point x="119" y="77" type="line" smooth="yes"/>
      <point x="119" y="34"/>
      <point x="131" y="0"/>
    </contour>
  </outline>
</glyph>
<glyph name="n" format="1">
  <advance width="869"/>
  <unicode hex="006E"/>
  <outline>
    <contour>
      <point x="135" y="0" type="curve" smooth="yes"/>
      <point x="315" y="0" type="line" smooth="yes"/>
      <point x="329" y="0"/>
      <point x="341" y="4"/>
      <point x="341" y="47" type="curve" smooth="yes"/>
      <point x="341" y="578" type="line" smooth="yes"/>
      <point x="341" y="741"/>
      <point x="395" y="842"/>
      <point x="463" y="842" type="curve" smooth="yes"/>
      <point x="527" y="842"/>
      <point x="543" y="739"/>
      <point x="543" y="578" type="curve" smooth="yes"/>
      <point x="543" y="47" type="line" smooth="yes"/>
      <point x="543" y="4"/>
      <point x="554" y="0"/>
      <point x="569" y="0" type="curve" smooth="yes"/>
      <point x="749" y="0" type="line" smooth="yes"/>
      <point x="764" y="0"/>
      <point x="775" y="4"/>
      <point x="775" y="47" type="curve" smooth="yes"/>
      <point x="775" y="555" type="line" smooth="yes"/>
      <point x="775" y="922"/>
      <point x="676" y="1017"/>
      <point x="522" y="1017" type="curve" smooth="yes"/>
      <point x="439" y="1017"/>
      <point x="333" y="1001"/>
      <point x="280" y="843" type="curve"/>
      <point x="279" y="839"/>
      <point x="276" y="836"/>
      <point x="273" y="836" type="curve" smooth="yes"/>
      <point x="270" y="836"/>
      <point x="267" y="839"/>
      <point x="265" y="845" type="curve"/>
      <point x="239" y="962" type="line" smooth="yes"/>
      <point x="230" y="1001"/>
      <point x="213" y="1006"/>
      <point x="198" y="1006" type="curve" smooth="yes"/>
      <point x="135" y="1006" type="line" smooth="yes"/>
      <point x="121" y="1006"/>
      <point x="109" y="992"/>
      <point x="109" y="949" type="curve" smooth="yes"/>
      <point x="109" y="47" type="line" smooth="yes"/>
      <point x="109" y="4"/>
      <point x="121" y="0"/>
    </contour>
  </outline>
</glyph>
<glyph name="o" format="1">
  <advance width="863"/>
  <unicode hex="006F"/>
  <outline>
    <contour>
      <point x="432" y="144" type="curve" smooth="yes"/>
      <point x="366" y="144"/>
      <point x="330" y="209"/>
      <point x="330" y="508" type="curve" smooth="yes"/>
      <point x="330" y="782"/>
      <point x="365" y="868"/>
      <point x="432" y="868" type="curve" smooth="yes"/>
      <point x="499" y="868"/>
      <point x="533" y="782"/>
      <point x="533" y="508" type="curve" smooth="yes"/>
      <point x="533" y="209"/>
      <point x="497" y="144"/>
    </contour>
    <contour>
      <point x="432" y="-31" type="curve" smooth="yes"/>
      <point x="564" y="-31"/>
      <point x="759" y="0"/>
      <point x="759" y="508" type="curve" smooth="yes"/>
      <point x="759" y="1006"/>
      <point x="551" y="1043"/>
      <point x="432" y="1043" type="curve" smooth="yes"/>
      <point x="313" y="1043"/>
      <point x="104" y="1006"/>
      <point x="104" y="508" type="curve" smooth="yes"/>
      <point x="104" y="0"/>
      <point x="300" y="-31"/>
    </contour>
  </outline>
</glyph>
<glyph name="p" format="1">
  <advance width="830"/>
  <unicode hex="0070"/>
  <outline>
    <contour>
      <point x="132" y="-299" type="curve" smooth="yes"/>
      <point x="292" y="-299" type="line" smooth="yes"/>
      <point x="306" y="-299"/>
      <point x="316" y="-269"/>
      <point x="316" y="-226" type="curve" smooth="yes"/>
      <point x="316" y="107" type="line" smooth="yes"/>
      <point x="316" y="118"/>
      <point x="320" y="122"/>
      <point x="325" y="122" type="curve" smooth="yes"/>
      <point x="328" y="122"/>
      <point x="332" y="120"/>
      <point x="333" y="116" type="curve"/>
      <point x="364" y="33"/>
      <point x="430" y="-10"/>
      <point x="491" y="-10" type="curve" smooth="yes"/>
      <point x="639" y="-10"/>
      <point x="748" y="123"/>
      <point x="748" y="512" type="curve" smooth="yes"/>
      <point x="748" y="879"/>
      <point x="611" y="1016"/>
      <point x="480" y="1016" type="curve" smooth="yes"/>
      <point x="397" y="1016"/>
      <point x="296" y="969"/>
      <point x="258" y="806" type="curve" smooth="yes"/>
      <point x="256" y="799"/>
      <point x="254" y="796"/>
      <point x="251" y="796" type="curve" smooth="yes"/>
      <point x="249" y="796"/>
      <point x="246" y="799"/>
      <point x="244" y="807" type="curve" smooth="yes"/>
      <point x="214" y="942" type="line" smooth="yes"/>
      <point x="205" y="980"/>
      <point x="188" y="1005"/>
      <point x="173" y="1005" type="curve" smooth="yes"/>
      <point x="135" y="1005" type="line" smooth="yes"/>
      <point x="121" y="1005"/>
      <point x="109" y="971"/>
      <point x="109" y="928" type="curve" smooth="yes"/>
      <point x="109" y="-226" type="line" smooth="yes"/>
      <point x="109" y="-269"/>
      <point x="118" y="-299"/>
    </contour>
    <contour>
      <point x="424" y="165" type="curve" smooth="yes"/>
      <point x="355" y="165"/>
      <point x="316" y="269"/>
      <point x="316" y="496" type="curve" smooth="yes"/>
      <point x="316" y="721"/>
      <point x="354" y="841"/>
      <point x="422" y="841" type="curve" smooth="yes"/>
      <point x="486" y="841"/>
      <point x="522" y="713"/>
      <point x="522" y="496" type="curve" smooth="yes"/>
      <point x="522" y="272"/>
      <point x="487" y="165"/>
    </contour>
  </outline>
</glyph>
<glyph name="q" format="1">
  <advance width="810"/>
  <unicode hex="0071"/>
  <outline>
    <contour>
      <point x="528" y="-299" type="curve" smooth="yes"/>
      <point x="683" y="-299" type="line" smooth="yes"/>
      <point x="698" y="-299"/>
      <point x="710" y="-265"/>
      <point x="710" y="-222" type="curve" smooth="yes"/>
      <point x="710" y="920" type="line" smooth="yes"/>
      <point x="710" y="963"/>
      <point x="698" y="997"/>
      <point x="683" y="997" type="curve" smooth="yes"/>
      <point x="645" y="997" type="line" smooth="yes"/>
      <point x="629" y="997"/>
      <point x="613" y="972"/>
      <point x="604" y="934" type="curve" smooth="yes"/>
      <point x="574" y="811" type="line"/>
      <point x="573" y="803"/>
      <point x="569" y="799"/>
      <point x="566" y="799" type="curve" smooth="yes"/>
      <point x="564" y="799"/>
      <point x="561" y="803"/>
      <point x="559" y="810" type="curve" smooth="yes"/>
      <point x="515" y="971"/>
      <point x="431" y="1053"/>
      <point x="346" y="1053" type="curve" smooth="yes"/>
      <point x="217" y="1053"/>
      <point x="87" y="879"/>
      <point x="87" y="512" type="curve" smooth="yes"/>
      <point x="87" y="123"/>
      <point x="214" y="-41"/>
      <point x="332" y="-41" type="curve" smooth="yes"/>
      <point x="393" y="-41"/>
      <point x="453" y="-7"/>
      <point x="491" y="63" type="curve" smooth="yes"/>
      <point x="492" y="65"/>
      <point x="494" y="67"/>
      <point x="495" y="67" type="curve" smooth="yes"/>
      <point x="499" y="67"/>
      <point x="502" y="58"/>
      <point x="502" y="46" type="curve" smooth="yes"/>
      <point x="502" y="-222" type="line" smooth="yes"/>
      <point x="502" y="-265"/>
      <point x="513" y="-299"/>
    </contour>
    <contour>
      <point x="401" y="231" type="curve" smooth="yes"/>
      <point x="338" y="231"/>
      <point x="305" y="362"/>
      <point x="305" y="496" type="curve" smooth="yes"/>
      <point x="305" y="627"/>
      <point x="338" y="760"/>
      <point x="402" y="760" type="curve" smooth="yes"/>
      <point x="469" y="760"/>
      <point x="502" y="629"/>
      <point x="502" y="496" type="curve" smooth="yes"/>
      <point x="502" y="365"/>
      <point x="469" y="231"/>
    </contour>
  </outline>
</glyph>
<glyph name="r" format="1">
  <advance width="616"/>
  <unicode hex="0072"/>
  <outline>
    <contour>
      <point x="145" y="0" type="curve" smooth="yes"/>
      <point x="300" y="0" type="line" smooth="yes"/>
      <point x="314" y="0"/>
      <point x="326" y="34"/>
      <point x="326" y="77" type="curve"/>
      <point x="326" y="77"/>
      <point x="326" y="471"/>
      <point x="326" y="491" type="curve" smooth="yes"/>
      <point x="326" y="593"/>
      <point x="335" y="725"/>
      <point x="422" y="760" type="curve" smooth="yes"/>
      <point x="437" y="766"/>
      <point x="490" y="770"/>
      <point x="491" y="770" type="curve" smooth="yes"/>
      <point x="503" y="770"/>
      <point x="506" y="774"/>
      <point x="506" y="806" type="curve" smooth="yes"/>
      <point x="506" y="981" type="line" smooth="yes"/>
      <point x="506" y="1016"/>
      <point x="498" y="1043"/>
      <point x="452" y="1043" type="curve" smooth="yes"/>
      <point x="447" y="1043"/>
      <point x="440" y="1043"/>
      <point x="435" y="1043" type="curve" smooth="yes"/>
      <point x="383" y="1041"/>
      <point x="319" y="983"/>
      <point x="268" y="809" type="curve"/>
      <point x="267" y="802"/>
      <point x="265" y="799"/>
      <point x="262" y="799" type="curve" smooth="yes"/>
      <point x="259" y="799"/>
      <point x="256" y="803"/>
      <point x="254" y="811" type="curve" smooth="yes"/>
      <point x="224" y="942" type="line" smooth="yes"/>
      <point x="215" y="981"/>
      <point x="209" y="1006"/>
      <point x="193" y="1006" type="curve" smooth="yes"/>
      <point x="138" y="1006" type="line" smooth="yes"/>
      <point x="124" y="1006"/>
      <point x="119" y="972"/>
      <point x="119" y="929" type="curve" smooth="yes"/>
      <point x="119" y="77" type="line" smooth="yes"/>
      <point x="119" y="34"/>
      <point x="131" y="0"/>
    </contour>
  </outline>
</glyph>
<glyph name="s" format="1">
  <advance width="735"/>
  <unicode hex="0073"/>
  <outline>
    <contour>
      <point x="359" y="-41" type="curve" smooth="yes"/>
      <point x="509" y="-41"/>
      <point x="645" y="19"/>
      <point x="645" y="307" type="curve" smooth="yes"/>
      <point x="645" y="640"/>
      <point x="503" y="651"/>
      <point x="398" y="669" type="curve" smooth="yes"/>
      <point x="317" y="683"/>
      <point x="268" y="680"/>
      <point x="268" y="729" type="curve" smooth="yes"/>
      <point x="268" y="760"/>
      <point x="285" y="786"/>
      <point x="364" y="786" type="curve" smooth="yes"/>
      <point x="449" y="786"/>
      <point x="500" y="766"/>
      <point x="548" y="718" type="curve" smooth="yes"/>
      <point x="563" y="703"/>
      <point x="578" y="722"/>
      <point x="585" y="761" type="curve" smooth="yes"/>
      <point x="603" y="866" type="line" smooth="yes"/>
      <point x="608" y="901"/>
      <point x="602" y="948"/>
      <point x="589" y="963" type="curve" smooth="yes"/>
      <point x="513" y="1051"/>
      <point x="435" y="1053"/>
      <point x="352" y="1053" type="curve" smooth="yes"/>
      <point x="267" y="1053"/>
      <point x="96" y="1018"/>
      <point x="96" y="698" type="curve" smooth="yes"/>
      <point x="96" y="419"/>
      <point x="251" y="398"/>
      <point x="353" y="376" type="curve" smooth="yes"/>
      <point x="442" y="357"/>
      <point x="460" y="357"/>
      <point x="460" y="293" type="curve" smooth="yes"/>
      <point x="460" y="249"/>
      <point x="439" y="236"/>
      <point x="395" y="236" type="curve" smooth="yes"/>
      <point x="310" y="236"/>
      <point x="233" y="257"/>
      <point x="156" y="323" type="curve" smooth="yes"/>
      <point x="141" y="336"/>
      <point x="126" y="316"/>
      <point x="119" y="275" type="curve" smooth="yes"/>
      <point x="99" y="155" type="line" smooth="yes"/>
      <point x="93" y="121"/>
      <point x="99" y="72"/>
      <point x="111" y="59" type="curve" smooth="yes"/>
      <point x="181" y="-18"/>
      <point x="289" y="-41"/>
    </contour>
  </outline>
</glyph>
<glyph name="t" format="1">
  <advance width="712"/>
  <unicode hex="0074"/>
  <outline>
    <contour>
      <point x="456" y="-31" type="curve" smooth="yes"/>
      <point x="501" y="-31"/>
      <point x="543" y="-18"/>
      <point x="578" y="4" type="curve" smooth="yes"/>
      <point x="592" y="13"/>
      <point x="600" y="18"/>
      <point x="600" y="60" type="curve" smooth="yes"/>
      <point x="600" y="119" type="line" smooth="yes"/>
      <point x="600" y="160"/>
      <point x="589" y="182"/>
      <point x="575" y="177" type="curve" smooth="yes"/>
      <point x="546" y="166"/>
      <point x="521" y="152"/>
      <point x="492" y="152" type="curve" smooth="yes"/>
      <point x="447" y="152"/>
      <point x="405" y="170"/>
      <point x="405" y="308" type="curve" smooth="yes"/>
      <point x="405" y="789" type="line" smooth="yes"/>
      <point x="405" y="809"/>
      <point x="411" y="811"/>
      <point x="418" y="811" type="curve" smooth="yes"/>
      <point x="545" y="811" type="line" smooth="yes"/>
      <point x="559" y="811"/>
      <point x="571" y="825"/>
      <point x="571" y="868" type="curve" smooth="yes"/>
      <point x="571" y="949" type="line" smooth="yes"/>
      <point x="571" y="992"/>
      <point x="559" y="1006"/>
      <point x="545" y="1006" type="curve" smooth="yes"/>
      <point x="418" y="1006" type="line" smooth="yes"/>
      <point x="411" y="1006"/>
      <point x="405" y="1013"/>
      <point x="405" y="1033" type="curve" smooth="yes"/>
      <point x="405" y="1418" type="line" smooth="yes"/>
      <point x="405" y="1461"/>
      <point x="394" y="1475"/>
      <point x="379" y="1475" type="curve" smooth="yes"/>
      <point x="225" y="1475" type="line" smooth="yes"/>
      <point x="210" y="1475"/>
      <point x="199" y="1461"/>
      <point x="197" y="1418" type="curve" smooth="yes"/>
      <point x="187" y="1033" type="line"/>
      <point x="187" y="1013"/>
      <point x="182" y="1006"/>
      <point x="175" y="1006" type="curve" smooth="yes"/>
      <point x="132" y="1006" type="line" smooth="yes"/>
      <point x="118" y="1006"/>
      <point x="106" y="992"/>
      <point x="106" y="949" type="curve" smooth="yes"/>
      <point x="106" y="868" type="line" smooth="yes"/>
      <point x="106" y="825"/>
      <point x="118" y="811"/>
      <point x="132" y="811" type="curve" smooth="yes"/>
      <point x="175" y="811" type="line" smooth="yes"/>
      <point x="182" y="811"/>
      <point x="187" y="809"/>
      <point x="187" y="789" type="curve" smooth="yes"/>
      <point x="187" y="314" type="line" smooth="yes"/>
      <point x="187" y="-10"/>
      <point x="330" y="-31"/>
    </contour>
  </outline>
</glyph>
<glyph name="u" format="1">
  <advance width="860"/>
  <unicode hex="0075"/>
  <outline>
    <contour>
      <point x="376" y="-31" type="curve" smooth="yes"/>
      <point x="460" y="-31"/>
      <point x="556" y="38"/>
      <point x="589" y="171" type="curve" smooth="yes"/>
      <point x="591" y="178"/>
      <point x="593" y="182"/>
      <point x="596" y="182" type="curve" smooth="yes"/>
      <point x="598" y="182"/>
      <point x="602" y="177"/>
      <point x="604" y="169" type="curve" smooth="yes"/>
      <point x="634" y="44" type="line" smooth="yes"/>
      <point x="643" y="5"/>
      <point x="659" y="0"/>
      <point x="675" y="0" type="curve" smooth="yes"/>
      <point x="712" y="0" type="line" smooth="yes"/>
      <point x="727" y="0"/>
      <point x="739" y="14"/>
      <point x="739" y="57" type="curve" smooth="yes"/>
      <point x="739" y="959" type="line" smooth="yes"/>
      <point x="739" y="1002"/>
      <point x="727" y="1006"/>
      <point x="712" y="1006" type="curve" smooth="yes"/>
      <point x="557" y="1006" type="line" smooth="yes"/>
      <point x="542" y="1006"/>
      <point x="530" y="1002"/>
      <point x="530" y="959" type="curve" smooth="yes"/>
      <point x="530" y="386" type="line" smooth="yes"/>
      <point x="530" y="253"/>
      <point x="498" y="144"/>
      <point x="431" y="144" type="curve" smooth="yes"/>
      <point x="367" y="144"/>
      <point x="334" y="207"/>
      <point x="334" y="338" type="curve" smooth="yes"/>
      <point x="334" y="959" type="line" smooth="yes"/>
      <point x="334" y="1002"/>
      <point x="322" y="1006"/>
      <point x="308" y="1006" type="curve" smooth="yes"/>
      <point x="144" y="1006" type="line" smooth="yes"/>
      <point x="128" y="1006"/>
      <point x="117" y="1002"/>
      <point x="117" y="959" type="curve" smooth="yes"/>
      <point x="117" y="351" type="line" smooth="yes"/>
      <point x="117" y="46"/>
      <point x="246" y="-31"/>
    </contour>
  </outline>
</glyph>
<glyph name="v" format="1">
  <advance width="816"/>
  <unicode hex="0076"/>
  <outline>
    <contour>
      <point x="303" y="0" type="curve" smooth="yes"/>
      <point x="502" y="0" type="line" smooth="yes"/>
      <point x="518" y="0"/>
      <point x="533" y="27"/>
      <point x="540" y="67" type="curve" smooth="yes"/>
      <point x="706" y="945" type="line" smooth="yes"/>
      <point x="707" y="952"/>
      <point x="709" y="960"/>
      <point x="709" y="967" type="curve" smooth="yes"/>
      <point x="709" y="990"/>
      <point x="702" y="1006"/>
      <point x="693" y="1006" type="curve" smooth="yes"/>
      <point x="543" y="1006" type="line" smooth="yes"/>
      <point x="527" y="1006"/>
      <point x="511" y="990"/>
      <point x="505" y="949" type="curve" smooth="yes"/>
      <point x="423" y="342" type="line" smooth="yes"/>
      <point x="422" y="335"/>
      <point x="420" y="332"/>
      <point x="418" y="332" type="curve" smooth="yes"/>
      <point x="416" y="332"/>
      <point x="414" y="335"/>
      <point x="412" y="342" type="curve"/>
      <point x="331" y="949" type="line" smooth="yes"/>
      <point x="324" y="990"/>
      <point x="310" y="1006"/>
      <point x="294" y="1006" type="curve" smooth="yes"/>
      <point x="118" y="1006" type="line" smooth="yes"/>
      <point x="109" y="1006"/>
      <point x="102" y="990"/>
      <point x="102" y="966" type="curve" smooth="yes"/>
      <point x="102" y="958"/>
      <point x="102" y="951"/>
      <point x="104" y="944" type="curve"/>
      <point x="264" y="68" type="line" smooth="yes"/>
      <point x="272" y="27"/>
      <point x="287" y="0"/>
    </contour>
  </outline>
</glyph>
<glyph name="w" format="1">
  <advance width="1057"/>
  <unicode hex="0077"/>
  <outline>
    <contour>
      <point x="251" y="0" type="curve" smooth="yes"/>
      <point x="441" y="0" type="line" smooth="yes"/>
      <point x="456" y="0"/>
      <point x="470" y="11"/>
      <point x="474" y="54" type="curve" smooth="yes"/>
      <point x="522" y="477" type="line"/>
      <point x="523" y="482"/>
      <point x="525" y="485"/>
      <point x="526" y="485" type="curve" smooth="yes"/>
      <point x="528" y="485"/>
      <point x="529" y="482"/>
      <point x="529" y="477" type="curve"/>
      <point x="581" y="54" type="line" smooth="yes"/>
      <point x="585" y="11"/>
      <point x="599" y="0"/>
      <point x="614" y="0" type="curve" smooth="yes"/>
      <point x="794" y="0" type="line" smooth="yes"/>
      <point x="810" y="0"/>
      <point x="824" y="9"/>
      <point x="830" y="51" type="curve" smooth="yes"/>
      <point x="947" y="943" type="line" smooth="yes"/>
      <point x="948" y="950"/>
      <point x="948" y="956"/>
      <point x="948" y="963" type="curve" smooth="yes"/>
      <point x="948" y="990"/>
      <point x="941" y="1006"/>
      <point x="930" y="1006" type="curve" smooth="yes"/>
      <point x="786" y="1006" type="line" smooth="yes"/>
      <point x="771" y="1006"/>
      <point x="757" y="990"/>
      <point x="754" y="947" type="curve" smooth="yes"/>
      <point x="705" y="411" type="line"/>
      <point x="705" y="406"/>
      <point x="704" y="403"/>
      <point x="703" y="403" type="curve" smooth="yes"/>
      <point x="701" y="403"/>
      <point x="699" y="405"/>
      <point x="699" y="410" type="curve"/>
      <point x="651" y="948" type="line" smooth="yes"/>
      <point x="647" y="991"/>
      <point x="632" y="1006"/>
      <point x="618" y="1006" type="curve" smooth="yes"/>
      <point x="466" y="1006" type="line" smooth="yes"/>
      <point x="451" y="1006"/>
      <point x="436" y="991"/>
      <point x="432" y="948" type="curve" smooth="yes"/>
      <point x="381" y="412" type="line"/>
      <point x="381" y="408"/>
      <point x="379" y="405"/>
      <point x="377" y="405" type="curve"/>
      <point x="377" y="405"/>
      <point x="375" y="408"/>
      <point x="374" y="413" type="curve"/>
      <point x="324" y="946" type="line" smooth="yes"/>
      <point x="320" y="990"/>
      <point x="307" y="1006"/>
      <point x="291" y="1006" type="curve" smooth="yes"/>
      <point x="123" y="1006" type="line" smooth="yes"/>
      <point x="112" y="1006"/>
      <point x="105" y="989"/>
      <point x="105" y="961" type="curve" smooth="yes"/>
      <point x="105" y="955"/>
      <point x="105" y="948"/>
      <point x="106" y="942" type="curve" smooth="yes"/>
      <point x="216" y="52" type="line" smooth="yes"/>
      <point x="221" y="9"/>
      <point x="236" y="0"/>
    </contour>
  </outline>
</glyph>
<glyph name="x" format="1">
  <advance width="910"/>
  <unicode hex="0078"/>
  <outline>
    <contour>
      <point x="130" y="0" type="curve" smooth="yes"/>
      <point x="323" y="0" type="line" smooth="yes"/>
      <point x="338" y="0"/>
      <point x="357" y="18"/>
      <point x="370" y="47" type="curve" smooth="yes"/>
      <point x="426" y="174" type="line"/>
      <point x="430" y="181"/>
      <point x="433" y="184"/>
      <point x="436" y="184" type="curve" smooth="yes"/>
      <point x="440" y="184"/>
      <point x="444" y="180"/>
      <point x="446" y="173" type="curve"/>
      <point x="495" y="50" type="line" smooth="yes"/>
      <point x="507" y="20"/>
      <point x="525" y="0"/>
      <point x="541" y="0" type="curve" smooth="yes"/>
      <point x="794" y="0" type="line" smooth="yes"/>
      <point x="800" y="0"/>
      <point x="804" y="13"/>
      <point x="804" y="27" type="curve" smooth="yes"/>
      <point x="804" y="35"/>
      <point x="803" y="43"/>
      <point x="800" y="48" type="curve"/>
      <point x="589" y="550" type="line" smooth="yes"/>
      <point x="587" y="555"/>
      <point x="585" y="564"/>
      <point x="585" y="572" type="curve" smooth="yes"/>
      <point x="585" y="581"/>
      <point x="587" y="589"/>
      <point x="590" y="595" type="curve" smooth="yes"/>
      <point x="759" y="960" type="line" smooth="yes"/>
      <point x="762" y="966"/>
      <point x="763" y="973"/>
      <point x="763" y="981" type="curve" smooth="yes"/>
      <point x="763" y="993"/>
      <point x="760" y="1006"/>
      <point x="754" y="1006" type="curve" smooth="yes"/>
      <point x="575" y="1006" type="line" smooth="yes"/>
      <point x="559" y="1006"/>
      <point x="541" y="987"/>
      <point x="528" y="958" type="curve" smooth="yes"/>
      <point x="482" y="848" type="line"/>
      <point x="479" y="842"/>
      <point x="476" y="839"/>
      <point x="473" y="839" type="curve" smooth="yes"/>
      <point x="470" y="839"/>
      <point x="465" y="842"/>
      <point x="462" y="849" type="curve" smooth="yes"/>
      <point x="420" y="956" type="line" smooth="yes"/>
      <point x="407" y="987"/>
      <point x="390" y="1006"/>
      <point x="374" y="1006" type="curve" smooth="yes"/>
      <point x="121" y="1006" type="line" smooth="yes"/>
      <point x="115" y="1006"/>
      <point x="111" y="993"/>
      <point x="111" y="979" type="curve" smooth="yes"/>
      <point x="111" y="971"/>
      <point x="113" y="963"/>
      <point x="115" y="958" type="curve" smooth="yes"/>
      <point x="311" y="494" type="line"/>
      <point x="312" y="489"/>
      <point x="314" y="480"/>
      <point x="314" y="472" type="curve" smooth="yes"/>
      <point x="314" y="463"/>
      <point x="312" y="455"/>
      <point x="310" y="449" type="curve"/>
      <point x="124" y="46" type="line"/>
      <point x="122" y="40"/>
      <point x="122" y="33"/>
      <point x="122" y="26" type="curve" smooth="yes"/>
      <point x="122" y="13"/>
      <point x="125" y="0"/>
    </contour>
  </outline>
</glyph>
<glyph name="y" format="1">
  <advance width="712"/>
  <unicode hex="0079"/>
  <outline>
    <contour>
      <point x="263" y="-271" type="curve" smooth="yes"/>
      <point x="371" y="-271"/>
      <point x="431" y="-239"/>
      <point x="478" y="22" type="curve" smooth="yes"/>
      <point x="655" y="944" type="line" smooth="yes"/>
      <point x="656" y="951"/>
      <point x="658" y="961"/>
      <point x="658" y="968" type="curve" smooth="yes"/>
      <point x="658" y="994"/>
      <point x="650" y="1006"/>
      <point x="640" y="1006" type="curve" smooth="yes"/>
      <point x="527" y="1006" type="line" smooth="yes"/>
      <point x="511" y="1006"/>
      <point x="497" y="1003"/>
      <point x="492" y="960" type="curve" smooth="yes"/>
      <point x="411" y="334" type="line"/>
      <point x="411" y="327"/>
      <point x="409" y="323"/>
      <point x="407" y="323" type="curve" smooth="yes"/>
      <point x="405" y="323"/>
      <point x="403" y="330"/>
      <point x="402" y="336" type="curve" smooth="yes"/>
      <point x="292" y="963" type="line" smooth="yes"/>
      <point x="285" y="1005"/>
      <point x="269" y="1006"/>
      <point x="253" y="1006" type="curve" smooth="yes"/>
      <point x="85" y="1006" type="line" smooth="yes"/>
      <point x="77" y="1006"/>
      <point x="70" y="993"/>
      <point x="70" y="970" type="curve" smooth="yes"/>
      <point x="70" y="963"/>
      <point x="71" y="955"/>
      <point x="72" y="948" type="curve"/>
      <point x="268" y="146" type="line" smooth="yes"/>
      <point x="275" y="107"/>
      <point x="289" y="64"/>
      <point x="289" y="33" type="curve" smooth="yes"/>
      <point x="289" y="-77"/>
      <point x="254" y="-87"/>
      <point x="236" y="-87" type="curve" smooth="yes"/>
      <point x="226" y="-87"/>
      <point x="155" y="-64"/>
      <point x="152" y="-64" type="curve" smooth="yes"/>
      <point x="144" y="-64"/>
      <point x="125" y="-66"/>
      <point x="125" y="-157" type="curve" smooth="yes"/>
      <point x="125" y="-186"/>
      <point x="127" y="-212"/>
      <point x="136" y="-223" type="curve" smooth="yes"/>
      <point x="168" y="-261"/>
      <point x="223" y="-271"/>
    </contour>
  </outline>
</glyph>
<glyph name="z" format="1">
  <advance width="631"/>
  <unicode hex="007A"/>
  <outline>
    <contour>
      <point x="102" y="0" type="curve" smooth="yes"/>
      <point x="553" y="0" type="line" smooth="yes"/>
      <point x="559" y="0"/>
      <point x="566" y="10"/>
      <point x="566" y="30" type="curve" smooth="yes"/>
      <point x="566" y="167" type="line" smooth="yes"/>
      <point x="566" y="187"/>
      <point x="559" y="200"/>
      <point x="553" y="198" type="curve"/>
      <point x="336" y="198" type="line"/>
      <point x="546" y="737" type="line" smooth="yes"/>
      <point x="552" y="752"/>
      <point x="556" y="766"/>
      <point x="556" y="789" type="curve" smooth="yes"/>
      <point x="556" y="975" type="line" smooth="yes"/>
      <point x="556" y="995"/>
      <point x="550" y="1006"/>
      <point x="544" y="1006" type="curve" smooth="yes"/>
      <point x="102" y="1006" type="line" smooth="yes"/>
      <point x="96" y="1006"/>
      <point x="90" y="995"/>
      <point x="90" y="975" type="curve" smooth="yes"/>
      <point x="90" y="834" type="line" smooth="yes"/>
      <point x="90" y="814"/>
      <point x="96" y="804"/>
      <point x="102" y="806" type="curve"/>
      <point x="321" y="806" type="line"/>
      <point x="98" y="247" type="line" smooth="yes"/>
      <point x="92" y="233"/>
      <point x="88" y="216"/>
      <point x="88" y="193" type="curve" smooth="yes"/>
      <point x="88" y="30" type="line" smooth="yes"/>
      <point x="88" y="10"/>
      <point x="95" y="0"/>
    </contour>
  </outline>
</glyph>
<glyph name="braceleft" format="1">
  <advance width="541"/>
  <unicode hex="007B"/>
  <outline>
    <contour>
      <point x="312" y="-123" type="curve" smooth="yes"/>
      <point x="340" y="-123"/>
      <point x="374" y="-123"/>
      <point x="405" y="-123" type="curve" smooth="yes"/>
      <point x="419" y="-123"/>
      <point x="431" y="-88"/>
      <point x="431" y="-46" type="curve" smooth="yes"/>
      <point x="431" y="64" type="line" smooth="yes"/>
      <point x="431" y="116"/>
      <point x="422" y="147"/>
      <point x="405" y="158" type="curve" smooth="yes"/>
      <point x="317" y="214"/>
      <point x="392" y="572"/>
      <point x="310" y="695" type="curve" smooth="yes"/>
      <point x="305" y="702"/>
      <point x="305" y="718"/>
      <point x="310" y="725" type="curve" smooth="yes"/>
      <point x="392" y="848"/>
      <point x="317" y="1206"/>
      <point x="405" y="1262" type="curve" smooth="yes"/>
      <point x="422" y="1273"/>
      <point x="431" y="1304"/>
      <point x="431" y="1356" type="curve" smooth="yes"/>
      <point x="431" y="1466" type="line" smooth="yes"/>
      <point x="431" y="1508"/>
      <point x="419" y="1543"/>
      <point x="405" y="1543" type="curve" smooth="yes"/>
      <point x="374" y="1543"/>
      <point x="340" y="1543"/>
      <point x="312" y="1543" type="curve" smooth="yes"/>
      <point x="149" y="1543"/>
      <point x="229" y="942"/>
      <point x="129" y="857" type="curve" smooth="yes"/>
      <point x="110" y="841"/>
      <point x="103" y="812"/>
      <point x="103" y="756" type="curve" smooth="yes"/>
      <point x="103" y="664" type="line" smooth="yes"/>
      <point x="103" y="608"/>
      <point x="110" y="579"/>
      <point x="129" y="563" type="curve" smooth="yes"/>
      <point x="229" y="478"/>
      <point x="149" y="-123"/>
    </contour>
  </outline>
</glyph>
<glyph name="bar" format="1">
  <advance width="356"/>
  <unicode hex="007C"/>
  <outline>
    <contour>
      <point x="150" y="-150" type="curve" smooth="yes"/>
      <point x="205" y="-150" type="line" smooth="yes"/>
      <point x="220" y="-150"/>
      <point x="232" y="-116"/>
      <point x="232" y="-73" type="curve" smooth="yes"/>
      <point x="232" y="1478" type="line" smooth="yes"/>
      <point x="232" y="1521"/>
      <point x="220" y="1555"/>
      <point x="205" y="1555" type="curve" smooth="yes"/>
      <point x="150" y="1555" type="line" smooth="yes"/>
      <point x="135" y="1555"/>
      <point x="123" y="1521"/>
      <point x="123" y="1478" type="curve" smooth="yes"/>
      <point x="123" y="-73" type="line" smooth="yes"/>
      <point x="123" y="-116"/>
      <point x="135" y="-150"/>
    </contour>
  </outline>
</glyph>
<glyph name="braceright" format="1">
  <advance width="546"/>
  <unicode hex="007D"/>
  <outline>
    <contour>
      <point x="138" y="-123" type="curve" smooth="yes"/>
      <point x="168" y="-123"/>
      <point x="203" y="-123"/>
      <point x="230" y="-123" type="curve" smooth="yes"/>
      <point x="394" y="-123"/>
      <point x="313" y="478"/>
      <point x="413" y="563" type="curve" smooth="yes"/>
      <point x="432" y="579"/>
      <point x="439" y="608"/>
      <point x="439" y="664" type="curve" smooth="yes"/>
      <point x="439" y="756" type="line" smooth="yes"/>
      <point x="439" y="812"/>
      <point x="432" y="841"/>
      <point x="413" y="857" type="curve" smooth="yes"/>
      <point x="313" y="942"/>
      <point x="394" y="1543"/>
      <point x="230" y="1543" type="curve" smooth="yes"/>
      <point x="203" y="1543"/>
      <point x="168" y="1543"/>
      <point x="138" y="1543" type="curve" smooth="yes"/>
      <point x="124" y="1543"/>
      <point x="111" y="1508"/>
      <point x="111" y="1466" type="curve" smooth="yes"/>
      <point x="111" y="1356" type="line" smooth="yes"/>
      <point x="111" y="1304"/>
      <point x="120" y="1273"/>
      <point x="137" y="1262" type="curve" smooth="yes"/>
      <point x="225" y="1206"/>
      <point x="151" y="848"/>
      <point x="233" y="725" type="curve"/>
      <point x="237" y="718"/>
      <point x="237" y="702"/>
      <point x="233" y="695" type="curve"/>
      <point x="151" y="572"/>
      <point x="225" y="214"/>
      <point x="137" y="158" type="curve" smooth="yes"/>
      <point x="120" y="147"/>
      <point x="111" y="116"/>
      <point x="111" y="64" type="curve" smooth="yes"/>
      <point x="111" y="-46" type="line" smooth="yes"/>
      <point x="111" y="-88"/>
      <point x="124" y="-123"/>
    </contour>
  </outline>
</glyph>
<glyph name="dieresis" format="1">
  <advance width="244"/>
  <unicode hex="00A8"/>
  <outline>
    <contour>
      <point x="26" y="0" type="curve" smooth="yes"/>
      <point x="76" y="0" type="line" smooth="yes"/>
      <point x="91" y="0"/>
      <point x="103" y="34"/>
      <point x="103" y="77" type="curve" smooth="yes"/>
      <point x="103" y="213" type="line" smooth="yes"/>
      <point x="103" y="256"/>
      <point x="91" y="290"/>
      <point x="76" y="290" type="curve" smooth="yes"/>
      <point x="26" y="290" type="line" smooth="yes"/>
      <point x="11" y="290"/>
      <point x="-1" y="256"/>
      <point x="-1" y="213" type="curve" smooth="yes"/>
      <point x="-1" y="77" type="line" smooth="yes"/>
      <point x="-1" y="34"/>
      <point x="11" y="0"/>
    </contour>
    <contour>
      <point x="257" y="0" type="curve" smooth="yes"/>
      <point x="307" y="0" type="line" smooth="yes"/>
      <point x="322" y="0"/>
      <point x="334" y="34"/>
      <point x="334" y="77" type="curve" smooth="yes"/>
      <point x="334" y="213" type="line" smooth="yes"/>
      <point x="334" y="256"/>
      <point x="322" y="290"/>
      <point x="307" y="290" type="curve" smooth="yes"/>
      <point x="257" y="290" type="line" smooth="yes"/>
      <point x="242" y="290"/>
      <point x="230" y="256"/>
      <point x="230" y="213" type="curve" smooth="yes"/>
      <point x="230" y="77" type="line" smooth="yes"/>
      <point x="230" y="34"/>
      <point x="242" y="0"/>
    </contour>
  </outline>
</glyph>
<glyph name="copyright" format="1">
  <advance width="1512"/>
  <unicode hex="00A9"/>
  <outline>
    <contour>
      <point x="1156" y="-22"/>
      <point x="1359" y="262"/>
      <point x="1359" y="704" type="curve" smooth="yes"/>
      <point x="1359" y="1146"/>
      <point x="1156" y="1429"/>
      <point x="753" y="1429" type="curve" smooth="yes"/>
      <point x="352" y="1429"/>
      <point x="129" y="1146"/>
      <point x="129" y="704" type="curve" smooth="yes"/>
      <point x="129" y="262"/>
      <point x="352" y="-22"/>
      <point x="753" y="-22" type="curve" smooth="yes"/>
    </contour>
    <contour>
      <point x="828" y="120"/>
      <point x="880" y="130"/>
      <point x="917" y="145" type="curve"/>
      <point x="930" y="151"/>
      <point x="933" y="161"/>
      <point x="933" y="175" type="curve"/>
      <point x="933" y="203"/>
      <point x="933" y="255"/>
      <point x="933" y="274" type="curve"/>
      <point x="933" y="291"/>
      <point x="927" y="301"/>
      <point x="920" y="301" type="curve" smooth="yes"/>
      <point x="919" y="301"/>
      <point x="918" y="300"/>
      <point x="917" y="300" type="curve"/>
      <point x="873" y="293"/>
      <point x="832" y="288"/>
      <point x="795" y="288" type="curve" smooth="yes"/>
      <point x="660" y="288"/>
      <point x="575" y="361"/>
      <point x="575" y="719" type="curve" smooth="yes"/>
      <point x="575" y="1114"/>
      <point x="668" y="1114"/>
      <point x="804" y="1114" type="curve" smooth="yes"/>
      <point x="864" y="1114"/>
      <point x="916" y="1097"/>
      <point x="920" y="1097" type="curve" smooth="yes"/>
      <point x="924" y="1097"/>
      <point x="927" y="1098"/>
      <point x="927" y="1113" type="curve" smooth="yes"/>
      <point x="927" y="1238" type="line" smooth="yes"/>
      <point x="927" y="1255"/>
      <point x="922" y="1256"/>
      <point x="917" y="1259" type="curve"/>
      <point x="880" y="1277"/>
      <point x="818" y="1290"/>
      <point x="766" y="1290" type="curve" smooth="yes"/>
      <point x="531" y="1290"/>
      <point x="363" y="1179"/>
      <point x="363" y="719" type="curve" smooth="yes"/>
      <point x="363" y="236"/>
      <point x="519" y="120"/>
      <point x="764" y="120" type="curve" smooth="yes"/>
    </contour>
    <contour>
      <point x="387" y="34"/>
      <point x="196" y="295"/>
      <point x="196" y="703" type="curve" smooth="yes"/>
      <point x="196" y="1111"/>
      <point x="387" y="1372"/>
      <point x="755" y="1372" type="curve" smooth="yes"/>
      <point x="1125" y="1372"/>
      <point x="1295" y="1111"/>
      <point x="1295" y="703" type="curve" smooth="yes"/>
      <point x="1295" y="295"/>
      <point x="1125" y="34"/>
      <point x="755" y="34" type="curve" smooth="yes"/>
    </contour>
  </outline>
</glyph>
<glyph name="acute" format="1">
  <advance width="598"/>
  <unicode hex="00B4"/>
  <outline>
    <contour>
      <point x="353" y="1171" type="curve" smooth="yes"/>
      <point x="366" y="1171"/>
      <point x="384" y="1171"/>
      <point x="404" y="1171" type="curve" smooth="yes"/>
      <point x="417" y="1171"/>
      <point x="420" y="1193"/>
      <point x="423" y="1210" type="curve" smooth="yes"/>
      <point x="486" y="1557" type="line" smooth="yes"/>
      <point x="488" y="1569"/>
      <point x="490" y="1583"/>
      <point x="490" y="1594" type="curve" smooth="yes"/>
      <point x="490" y="1610"/>
      <point x="486" y="1622"/>
      <point x="480" y="1622" type="curve" smooth="yes"/>
      <point x="386" y="1622" type="line" smooth="yes"/>
      <point x="371" y="1622"/>
      <point x="363" y="1610"/>
      <point x="360" y="1567" type="curve" smooth="yes"/>
      <point x="340" y="1238" type="line" smooth="yes"/>
      <point x="339" y="1224"/>
      <point x="338" y="1212"/>
      <point x="338" y="1203" type="curve" smooth="yes"/>
      <point x="338" y="1176"/>
      <point x="343" y="1171"/>
    </contour>
  </outline>
</glyph>
<glyph name="Oslash" format="1">
  <advance width="846"/>
  <unicode hex="00D8"/>
  <outline>
    <component base="O"/>
    <component base="fraction" xScale="0.84" xOffset="222" yOffset="4"/>
    <contour>
      <point x="397.0" y="1455.0" type="move" name="top"/>
    </contour>
  </outline>
</glyph>
<glyph name="oslash" format="1">
  <advance width="819"/>
  <unicode hex="00F8"/>
  <outline>
    <contour>
      <point x="195" y="-92" type="line" smooth="yes"/>
      <point x="199" y="-93"/>
      <point x="205" y="-86"/>
      <point x="209" y="-73" type="curve" smooth="yes"/>
      <point x="686" y="1046" type="line" smooth="yes"/>
      <point x="691" y="1055"/>
      <point x="692" y="1068"/>
      <point x="689" y="1068" type="curve" smooth="yes"/>
      <point x="635" y="1084" type="line" smooth="yes"/>
      <point x="632" y="1085"/>
      <point x="626" y="1077"/>
      <point x="620" y="1065" type="curve" smooth="yes"/>
      <point x="144" y="-53" type="line" smooth="yes"/>
      <point x="141" y="-63"/>
      <point x="139" y="-74"/>
      <point x="141" y="-75" type="curve" smooth="yes"/>
    </contour>
    <component base="o"/>
  </outline>
</glyph>
<glyph name="OE" format="1">
  <advance width="1301"/>
  <unicode hex="0152"/>
  <outline>
    <contour>
      <point x="539" y="0" type="curve" smooth="yes"/>
      <point x="557" y="0"/>
      <point x="542" y="0"/>
      <point x="1226" y="0" type="curve" smooth="yes"/>
      <point x="1241" y="0"/>
      <point x="1252" y="34"/>
      <point x="1252" y="77" type="curve" smooth="yes"/>
      <point x="1252" y="135" type="line" smooth="yes"/>
      <point x="1252" y="178"/>
      <point x="1241" y="212"/>
      <point x="1226" y="212" type="curve" smooth="yes"/>
      <point x="884" y="212" type="line" smooth="yes"/>
      <point x="877" y="212"/>
      <point x="871" y="229"/>
      <point x="871" y="249" type="curve" smooth="yes"/>
      <point x="871" y="582" type="line" smooth="yes"/>
      <point x="871" y="602"/>
      <point x="877" y="619"/>
      <point x="884" y="619" type="curve" smooth="yes"/>
      <point x="1134" y="619" type="line" smooth="yes"/>
      <point x="1149" y="619"/>
      <point x="1161" y="653"/>
      <point x="1161" y="696" type="curve" smooth="yes"/>
      <point x="1161" y="754" type="line" smooth="yes"/>
      <point x="1161" y="797"/>
      <point x="1149" y="831"/>
      <point x="1134" y="831" type="curve" smooth="yes"/>
      <point x="884" y="831" type="line" smooth="yes"/>
      <point x="877" y="831"/>
      <point x="871" y="848"/>
      <point x="871" y="868" type="curve" smooth="yes"/>
      <point x="871" y="1189" type="line" smooth="yes"/>
      <point x="871" y="1209"/>
      <point x="877" y="1226"/>
      <point x="884" y="1226" type="curve" smooth="yes"/>
      <point x="1199" y="1226" type="line" smooth="yes"/>
      <point x="1215" y="1226"/>
      <point x="1226" y="1260"/>
      <point x="1226" y="1303" type="curve" smooth="yes"/>
      <point x="1226" y="1361" type="line" smooth="yes"/>
      <point x="1226" y="1403"/>
      <point x="1214" y="1438"/>
      <point x="1199" y="1438" type="curve" smooth="yes"/>
      <point x="541" y="1438"/>
      <point x="542" y="1438"/>
      <point x="510" y="1438" type="curve" smooth="yes"/>
      <point x="329" y="1438"/>
      <point x="86" y="1291"/>
      <point x="86" y="721" type="curve" smooth="yes"/>
      <point x="86" y="70"/>
      <point x="356" y="0"/>
    </contour>
    <contour>
      <point x="525" y="212" type="curve" smooth="yes"/>
      <point x="436" y="212"/>
      <point x="348" y="354"/>
      <point x="348" y="721" type="curve" smooth="yes"/>
      <point x="348" y="1088"/>
      <point x="436" y="1226"/>
      <point x="525" y="1226" type="curve" smooth="yes"/>
      <point x="547" y="1226"/>
      <point x="580" y="1226"/>
      <point x="597" y="1226" type="curve" smooth="yes"/>
      <point x="604" y="1226"/>
      <point x="609" y="1209"/>
      <point x="609" y="1189" type="curve" smooth="yes"/>
      <point x="609" y="248" type="line" smooth="yes"/>
      <point x="609" y="228"/>
      <point x="604" y="212"/>
      <point x="597" y="212" type="curve" smooth="yes"/>
      <point x="580" y="212"/>
      <point x="547" y="212"/>
    </contour>
  </outline>
</glyph>
<glyph name="caron" format="1">
  <advance width="327"/>
  <unicode hex="02C7"/>
  <outline>
    <contour>
      <point x="145" y="1217" type="curve" smooth="yes"/>
      <point x="176" y="1217" type="line" smooth="yes"/>
      <point x="194" y="1217"/>
      <point x="212" y="1247"/>
      <point x="226" y="1297" type="curve" smooth="yes"/>
      <point x="286" y="1527" type="line" smooth="yes"/>
      <point x="288" y="1538"/>
      <point x="290" y="1549"/>
      <point x="290" y="1561" type="curve" smooth="yes"/>
      <point x="290" y="1584"/>
      <point x="286" y="1607"/>
      <point x="279" y="1607" type="curve" smooth="yes"/>
      <point x="260" y="1607" type="line" smooth="yes"/>
      <point x="242" y="1607"/>
      <point x="228" y="1584"/>
      <point x="213" y="1549" type="curve" smooth="yes"/>
      <point x="172" y="1453" type="line" smooth="yes"/>
      <point x="169" y="1445"/>
      <point x="165" y="1441"/>
      <point x="161" y="1441" type="curve" smooth="yes"/>
      <point x="157" y="1441"/>
      <point x="153" y="1445"/>
      <point x="148" y="1453" type="curve" smooth="yes"/>
      <point x="108" y="1549" type="line" smooth="yes"/>
      <point x="93" y="1584"/>
      <point x="79" y="1607"/>
      <point x="60" y="1607" type="curve" smooth="yes"/>
      <point x="42" y="1607" type="line" smooth="yes"/>
      <point x="36" y="1607"/>
      <point x="31" y="1584"/>
      <point x="31" y="1561" type="curve" smooth="yes"/>
      <point x="31" y="1549"/>
      <point x="32" y="1538"/>
      <point x="35" y="1527" type="curve" smooth="yes"/>
      <point x="94" y="1297" type="line" smooth="yes"/>
      <point x="108" y="1247"/>
      <point x="128" y="1217"/>
    </contour>
  </outline>
</glyph>
<glyph name="ring" format="1">
  <advance width="588"/>
  <unicode hex="02DA"/>
  <outline>
    <contour>
      <point x="295" y="277" type="curve" smooth="yes"/>
      <point x="266" y="277"/>
      <point x="202" y="299"/>
      <point x="202" y="397" type="curve" smooth="yes"/>
      <point x="202" y="502"/>
      <point x="267" y="517"/>
      <point x="295" y="517" type="curve" smooth="yes"/>
      <point x="321" y="517"/>
      <point x="386" y="502"/>
      <point x="386" y="397" type="curve" smooth="yes"/>
      <point x="386" y="298"/>
      <point x="322" y="277"/>
    </contour>
    <contour>
      <point x="295" y="222" type="curve" smooth="yes"/>
      <point x="336" y="222"/>
      <point x="442" y="246"/>
      <point x="442" y="397" type="curve" smooth="yes"/>
      <point x="442" y="553"/>
      <point x="341" y="573"/>
      <point x="295" y="573" type="curve" smooth="yes"/>
      <point x="249" y="573"/>
      <point x="147" y="553"/>
      <point x="147" y="397" type="curve" smooth="yes"/>
      <point x="147" y="245"/>
      <point x="253" y="222"/>
    </contour>
  </outline>
</glyph>
<glyph name="quoteleft" format="1">
  <advance width="365"/>
  <unicode hex="2018"/>
  <outline>
    <contour>
      <point x="134" y="781" type="curve" smooth="yes"/>
      <point x="227" y="781" type="line" smooth="yes"/>
      <point x="242" y="781"/>
      <point x="248" y="815"/>
      <point x="248" y="858" type="curve" smooth="yes"/>
      <point x="248" y="1061" type="line" smooth="yes"/>
      <point x="248" y="1099"/>
      <point x="240" y="1131"/>
      <point x="227" y="1131" type="curve" smooth="yes"/>
      <point x="201" y="1131" type="line" smooth="yes"/>
      <point x="197" y="1131"/>
      <point x="196" y="1142"/>
      <point x="196" y="1158" type="curve" smooth="yes"/>
      <point x="196" y="1182"/>
      <point x="200" y="1259"/>
      <point x="223" y="1302" type="curve" smooth="yes"/>
      <point x="238" y="1329"/>
      <point x="248" y="1323"/>
      <point x="248" y="1377" type="curve" smooth="yes"/>
      <point x="248" y="1428" type="line" smooth="yes"/>
      <point x="248" y="1464"/>
      <point x="234" y="1479"/>
      <point x="222" y="1473" type="curve" smooth="yes"/>
      <point x="175" y="1450"/>
      <point x="112" y="1343"/>
      <point x="112" y="1106" type="curve" smooth="yes"/>
      <point x="112" y="858" type="line" smooth="yes"/>
      <point x="112" y="815"/>
      <point x="119" y="781"/>
    </contour>
  </outline>
</glyph>
<glyph name="quoteright" format="1">
  <advance width="360"/>
  <unicode hex="2019"/>
  <outline>
    <contour>
      <point x="141" y="783" type="curve" smooth="yes"/>
      <point x="189" y="806"/>
      <point x="251" y="913"/>
      <point x="251" y="1150" type="curve" smooth="yes"/>
      <point x="251" y="1398" type="line" smooth="yes"/>
      <point x="251" y="1441"/>
      <point x="244" y="1475"/>
      <point x="230" y="1475" type="curve" smooth="yes"/>
      <point x="136" y="1475" type="line" smooth="yes"/>
      <point x="122" y="1475"/>
      <point x="115" y="1441"/>
      <point x="115" y="1398" type="curve" smooth="yes"/>
      <point x="115" y="1195" type="line" smooth="yes"/>
      <point x="115" y="1157"/>
      <point x="123" y="1125"/>
      <point x="136" y="1125" type="curve" smooth="yes"/>
      <point x="162" y="1125" type="line" smooth="yes"/>
      <point x="167" y="1125"/>
      <point x="168" y="1114"/>
      <point x="168" y="1098" type="curve" smooth="yes"/>
      <point x="168" y="1074"/>
      <point x="163" y="997"/>
      <point x="140" y="954" type="curve" smooth="yes"/>
      <point x="125" y="927"/>
      <point x="115" y="933"/>
      <point x="115" y="879" type="curve" smooth="yes"/>
      <point x="115" y="828" type="line" smooth="yes"/>
      <point x="115" y="792"/>
      <point x="129" y="777"/>
    </contour>
  </outline>
</glyph>
<glyph name="fraction" format="1">
  <advance width="606"/>
  <unicode hex="2044"/>
  <outline>
    <contour>
      <point x="92" y="-205" type="curve" smooth="yes"/>
      <point x="206" y="-207" type="line" smooth="yes"/>
      <point x="213" y="-207"/>
      <point x="221" y="-194"/>
      <point x="224" y="-174" type="curve" smooth="yes"/>
      <point x="525" y="1614" type="line" smooth="yes"/>
      <point x="528" y="1629"/>
      <point x="524" y="1647"/>
      <point x="518" y="1647" type="curve" smooth="yes"/>
      <point x="405" y="1647" type="line" smooth="yes"/>
      <point x="398" y="1647"/>
      <point x="390" y="1634"/>
      <point x="387" y="1614" type="curve" smooth="yes"/>
      <point x="85" y="-172" type="line" smooth="yes"/>
      <point x="83" y="-187"/>
      <point x="87" y="-205"/>
    </contour>
  </outline>
</glyph>
